<svg width="205" height="205" viewBox="0 0 205 205" fill="none" xmlns="http://www.w3.org/2000/svg">
<g clip-path="url(#clip0_1_592)">
<path d="M182.65 22.15C153.11 -7.39001 105.18 -7.39001 75.64 22.15L22.15 75.64C-7.39001 105.18 -7.39001 153.11 22.15 182.65C51.69 212.19 99.62 212.19 129.16 182.65L182.65 129.16C212.19 99.62 212.19 51.69 182.65 22.15ZM169.99 116.5L116.5 169.99C93.98 192.51 57.34 192.51 34.82 169.99C12.3 147.47 12.3 110.83 34.82 88.31L88.31 34.82C110.83 12.3 147.47 12.3 169.99 34.82C192.51 57.34 192.51 93.98 169.99 116.5Z" fill="#28C8E1"/>
<path d="M92.37 77.94C88.88 74.45 83.2 74.45 79.71 77.94C76.22 81.43 76.22 87.11 79.71 90.6L114.21 125.1C117.7 128.59 123.38 128.59 126.87 125.1C130.36 121.6 130.36 115.93 126.87 112.44L92.37 77.95V77.94Z" fill="#28C8E1"/>
<path d="M67.25 103.06C63.76 99.57 58.08 99.57 54.59 103.06C51.1 106.55 51.1 112.23 54.59 115.72L89.09 150.22C92.58 153.71 98.26 153.71 101.75 150.22C105.24 146.73 105.24 141.05 101.75 137.56L67.26 103.06H67.25Z" fill="#28C8E1"/>
<path d="M117.69 52.61C114.19 49.12 108.52 49.12 105.03 52.61C101.54 56.1 101.54 61.78 105.03 65.27L139.53 99.77C143.02 103.26 148.7 103.26 152.19 99.77C155.68 96.27 155.68 90.6 152.19 87.11L117.7 52.61H117.69Z" fill="#28C8E1"/>
</g>
<defs>
<clipPath id="clip0_1_592">
<rect width="204.8" height="204.8" fill="white"/>
</clipPath>
</defs>
</svg>
