<svg width="163" height="163" viewBox="0 0 163 163" fill="none" xmlns="http://www.w3.org/2000/svg">
<g clip-path="url(#clip0_1_590)">
<path d="M35.3 0C15.81 0 0 15.91 0 35.41V127.74C0 147.24 15.81 162.94 35.3 162.94H127.63C147.13 162.94 162.94 147.24 162.94 127.74V35.41C162.94 15.91 147.13 0 127.63 0H35.3Z" fill="black"/>
<path d="M75.5401 62.85L88.1001 50.29C75.4201 37.61 54.7901 37.61 42.1101 50.29C29.4301 62.97 29.4301 83.6 42.1101 96.28L58.4801 112.65L71.0401 100.09L54.6701 83.72C48.9201 77.97 48.9201 68.61 54.6701 62.86C60.4201 57.11 69.7801 57.11 75.5301 62.86L75.5401 62.85Z" fill="white"/>
<path d="M120.85 50.29C108.17 37.61 87.54 37.61 74.86 50.29L58.49 66.66C45.81 79.34 45.81 99.97 58.49 112.65C71.17 125.33 91.8 125.33 104.48 112.65L120.85 96.28C133.53 83.6 133.53 62.97 120.85 50.29ZM108.28 83.71L91.91 100.08C86.16 105.83 76.8 105.83 71.05 100.08C65.3 94.33 65.3 84.97 71.05 79.22L87.42 62.85C93.17 57.1 102.53 57.1 108.28 62.85C114.03 68.6 114.03 77.96 108.28 83.71Z" fill="white"/>
</g>
<defs>
<clipPath id="clip0_1_590">
<rect width="162.94" height="162.94" fill="white"/>
</clipPath>
</defs>
</svg>
