<svg width="579" height="409" viewBox="0 0 579 409" fill="none" xmlns="http://www.w3.org/2000/svg">
<path d="M421.626 156.013C421.626 159.929 421.912 163.936 421.08 167.599C420.222 171.38 418.264 174.896 416.617 178.31C414.945 181.778 412.767 184.99 410.388 187.968C407.997 190.96 405.841 194.41 402.845 196.801C399.868 199.18 396.198 200.878 392.733 202.553C389.319 204.2 385.645 205.729 381.865 206.587C378.202 207.419 374.235 206.359 370.322 206.359C366.406 206.359 362.501 207.151 358.839 206.319C355.058 205.461 351.373 204.086 347.963 202.44C344.495 200.768 340.824 199.114 337.847 196.735C334.855 194.344 331.962 191.502 329.571 188.507C327.192 185.529 325.685 181.778 324.013 178.313C322.366 174.9 321.589 171.116 320.727 167.332C319.895 163.669 318.744 159.925 318.744 156.009C318.744 152.093 319.202 148.192 320.038 144.529C320.896 140.749 321.754 136.822 323.4 133.408C325.072 129.939 328.178 127.27 330.558 124.293C332.948 121.301 335.255 118.17 338.247 115.779C341.224 113.399 344.506 111.262 347.971 109.59C351.384 107.943 354.996 106.286 358.776 105.424C362.439 104.592 366.406 105.74 370.322 105.74C374.238 105.74 377.868 106.084 381.531 106.917C385.312 107.775 389.308 107.859 392.718 109.505C396.187 111.177 398.937 114.012 401.918 116.391C404.91 118.782 408.514 120.652 410.905 123.647C413.284 126.625 414.175 130.618 415.847 134.086C417.494 137.496 418.729 140.98 419.587 144.764C420.42 148.43 421.626 152.101 421.626 156.013ZM374.763 250.3C374.315 251.961 372.552 253.219 370.322 253.219C368.243 253.219 366.333 253.032 362.347 253.032C358.354 253.032 358.354 253.578 354.365 253.578C350.376 253.578 350.376 253.883 346.387 253.883C342.394 253.883 342.394 254.088 338.404 254.088C334.415 254.088 334.411 253.428 330.422 253.428C326.436 253.428 326.436 253.696 322.451 253.696C318.462 253.696 318.462 253.267 314.469 253.267C310.476 253.267 310.476 253.883 306.479 253.883C302.482 253.883 302.482 252.702 298.489 252.702C294.493 252.702 294.493 253.593 290.496 253.593C286.492 253.593 286.492 254.037 282.492 254.037C278.491 254.037 278.488 253.567 274.484 253.553C274.469 253.553 274.495 253.479 274.48 253.479C271.65 253.446 268.845 253.098 266.076 252.827C263.264 252.552 260.606 251.463 257.867 250.949C255.091 250.432 252.165 250.682 249.477 249.934C246.76 249.178 244.175 248.009 241.561 247.026C238.925 246.036 236.571 244.833 234.048 243.627C231.511 242.413 228.328 241.563 225.916 240.14C223.496 238.714 220.896 236.785 218.612 235.161C216.324 233.533 214.413 232.334 212.279 230.515C210.142 228.697 208.572 226.225 206.6 224.231C204.627 222.236 202.533 220.344 200.737 218.184C198.947 216.028 197.583 213.539 195.981 211.232C194.383 208.933 192.755 206.66 191.358 204.218C189.968 201.791 188.201 199.525 187.016 196.973C185.843 194.436 184.505 191.898 183.548 189.247C182.598 186.622 181.799 183.868 181.076 181.144C180.361 178.449 180.526 175.516 180.042 172.736C179.566 169.994 179.665 167.181 179.426 164.362C179.188 161.59 178 158.836 178 156.006C178 153.171 178.708 150.377 178.942 147.609C179.184 144.793 178.598 141.852 179.074 139.11C179.558 136.327 180.662 133.643 181.377 130.948C182.099 128.223 183.621 125.756 184.567 123.13C185.524 120.479 185.454 117.392 186.628 114.855C187.808 112.303 189.323 109.85 190.716 107.423C192.113 104.984 194.401 103.089 196 100.79C197.602 98.4833 199.56 96.4923 201.353 94.3364C203.146 92.1767 204.704 89.8447 206.673 87.8501C208.646 85.8554 210.142 83.3145 212.279 81.4958C214.413 79.6808 217.299 78.8008 219.587 77.1692C221.868 75.5449 224.126 73.9315 226.55 72.5015C228.959 71.0826 231.108 69.1319 233.645 67.9183C236.168 66.7119 238.928 65.9896 241.565 64.9996C244.179 64.0206 246.79 62.9426 249.507 62.1873C252.194 61.4393 255.146 61.8903 257.922 61.3733C260.661 60.8636 263.29 59.7637 266.106 59.4887C268.874 59.2173 271.019 58.8763 273.853 58.8397C273.868 58.8397 275.305 58.7407 275.32 58.7407C279.309 58.726 278.884 59.1293 282.869 59.1293C286.862 59.1293 288.032 58.4107 292.025 58.4107C296.014 58.4107 294.438 58.6087 298.427 58.6087C302.42 58.6087 302.42 58.0697 306.409 58.0697C310.399 58.0697 310.402 58.5133 314.392 58.5133C318.377 58.5133 318.377 58 322.363 58C326.352 58 326.352 58.8103 330.345 58.8103C334.342 58.8103 335.328 58.803 339.325 58.803C343.321 58.803 343.16 59.1587 347.153 59.1587C351.15 59.1587 351.179 58.6343 355.176 58.6343C359.18 58.6343 358.322 59.056 362.322 59.056C366.326 59.056 370.326 58.8763 370.326 58.8763C372.555 58.8763 374.521 60.0056 374.968 61.6666C375.47 63.533 374.279 64.6329 370.689 64.6329C370.689 64.6329 364.753 64.9886 361.977 65.2453C359.15 65.5056 356.29 65.7329 353.544 66.2426C350.757 66.7596 347.894 66.9576 345.202 67.7203C342.482 68.4939 339.977 69.9202 337.363 70.9359C334.727 71.9589 332.167 73.0919 329.656 74.3422C327.129 75.6035 324.841 77.2205 322.454 78.7018C320.06 80.1868 317.772 81.7598 315.532 83.4575C313.284 85.1588 310.831 86.5778 308.752 88.4734C306.673 90.3691 305.108 92.756 303.212 94.835C301.316 96.914 299.219 98.7877 297.518 101.035C295.824 103.276 293.675 105.307 292.19 107.701C290.709 110.088 289.825 112.783 288.567 115.31C287.317 117.817 285.601 120.16 284.582 122.793C283.57 125.404 282.517 128.084 281.744 130.805C280.981 133.496 281.502 136.521 280.985 139.304C280.475 142.05 278.953 144.69 278.697 147.517C278.444 150.293 278.521 153.168 278.521 156.009C278.521 158.851 278.814 161.692 279.067 164.468C279.328 167.295 279.709 170.364 280.218 173.11C280.735 175.897 282.22 179.38 282.983 182.072C283.757 184.792 284.197 186.376 285.209 188.991C286.232 191.627 287.185 194.282 288.439 196.79C289.7 199.316 290.401 202.201 291.882 204.585C293.367 206.979 296.095 208.548 297.789 210.789C299.49 213.036 300.495 215.867 302.391 217.946C304.286 220.025 306.978 221.327 309.06 223.222C311.139 225.118 313.24 226.94 315.484 228.638C317.725 230.332 319.767 231.597 322.165 233.082C324.552 234.563 326.491 235.986 329.018 237.247C331.526 238.497 334.602 240.411 337.235 241.434C339.845 242.446 342.504 243.458 345.228 244.228C347.919 244.991 350.614 246.051 353.401 246.568C356.147 247.077 359.055 246.938 361.882 247.198C364.657 247.451 365.886 247.363 368.731 247.363C368.731 247.363 371.47 247.268 372.526 247.554C374.473 248.093 375.265 248.434 374.763 250.3Z" fill="black"/>
<path d="M119.372 324.092C121.807 324.092 121.807 324.063 124.245 324.063C126.68 324.063 126.68 324.334 129.118 324.334C131.56 324.334 131.56 323.997 133.998 323.997C136.44 323.997 136.44 324.059 138.879 324.059C139.476 324.059 139.795 324.573 139.722 325.167C139.509 326.886 139.091 328.507 138.582 330.113C138.061 331.756 137.621 333.406 136.825 334.898C136.019 336.416 135.201 337.945 134.156 339.28C133.096 340.633 131.879 341.872 130.618 343.005C129.287 344.207 127.692 345.003 126.207 345.927C124.718 346.851 123.343 348.039 121.675 348.692C120.08 349.315 118.294 349.55 116.512 349.942C114.859 350.305 113.143 350.815 111.309 350.983C109.626 351.137 107.844 350.91 105.996 350.91C104.211 350.91 102.465 350.983 100.779 350.796C99.0078 350.598 97.2991 350.243 95.6491 349.843C93.9221 349.429 92.1695 349.132 90.5818 348.512C88.9355 347.867 87.5018 346.803 86.0169 345.953C84.4879 345.08 83.0432 344.13 81.7012 343.056C80.3372 341.963 78.9769 340.863 77.8146 339.58C76.6486 338.293 75.8823 336.706 74.9363 335.246C73.9976 333.798 72.7253 332.515 72.014 330.909C71.3173 329.339 70.6133 327.7 70.144 325.999C69.693 324.353 69.6967 322.552 69.4693 320.796C69.2493 319.106 69 317.371 69 315.597C69 313.822 69.572 312.128 69.7957 310.438C70.0267 308.685 70.1733 306.973 70.6353 305.326C71.1083 303.629 71.651 301.993 72.3513 300.424C73.0663 298.826 73.9536 297.348 74.8923 295.9C75.8419 294.44 76.7733 292.977 77.9393 291.69C79.1016 290.407 80.4289 289.292 81.7892 288.196C83.1312 287.114 84.3522 285.802 85.8702 284.922C87.3515 284.064 88.9465 283.268 90.5855 282.615C92.1695 281.985 93.8781 281.501 95.6014 281.079C97.2514 280.672 98.9821 280.247 100.746 280.041C102.432 279.847 104.207 280.401 105.989 280.401C107.811 280.401 109.586 280.236 111.309 280.43C113.128 280.635 114.811 281.218 116.49 281.633C118.269 282.069 119.915 282.612 121.51 283.272C123.208 283.972 124.854 284.584 126.299 285.516C127.699 286.418 128.894 287.492 130.071 288.57C131.289 289.685 132.818 290.51 133.797 291.793C134.79 293.095 135.659 294.543 136.404 295.988C137.144 297.432 137.163 299.185 137.65 300.751C138.131 302.29 138.769 303.786 139.003 305.418C139.088 306.019 138.648 306.225 138.039 306.225C135.634 306.225 135.634 306.313 133.225 306.313C130.819 306.313 130.819 306.87 128.411 306.87C125.998 306.87 125.998 306.426 123.589 306.426C121.176 306.426 121.176 306.826 118.767 306.826C118.269 306.826 117.524 306.243 117.433 305.755C117.106 303.97 116.916 301.982 115.709 300.545C114.573 299.192 112.871 298.169 111.1 297.407C109.52 296.725 107.661 296.285 105.681 296.285C103.683 296.285 101.868 296.728 100.273 297.319C98.4981 297.979 96.7968 298.833 95.5171 300.127C94.2778 301.385 93.2878 303.031 92.5105 304.787C91.8138 306.368 91.4655 308.208 91.1355 310.119C90.8422 311.831 90.3545 313.664 90.3545 315.593C90.3545 317.514 90.7798 319.359 91.1098 321.067C91.4765 322.959 91.8835 324.811 92.6241 326.377C93.4418 328.104 94.9671 329.262 96.2138 330.513C97.5118 331.814 98.7694 333.138 100.493 333.816C102.11 334.454 103.928 335.067 105.883 335.067C108.02 335.067 109.909 334.322 111.537 333.637C113.418 332.848 115.086 331.774 116.234 330.282C117.389 328.786 118.027 326.89 118.382 324.91C118.478 324.433 118.881 324.092 119.372 324.092ZM258.759 341.388C258.759 338.964 258.91 338.964 258.91 336.541C258.91 334.117 258.998 334.117 258.998 331.69C258.998 329.266 259.038 329.266 259.038 326.839C259.038 324.408 259.053 324.408 259.053 321.98C259.053 319.553 259.056 319.549 259.056 317.122C259.056 315.043 258.745 313.118 258.195 311.365C257.601 309.466 256.732 307.713 255.489 306.217C254.301 304.791 252.724 303.647 250.935 302.606C249.347 301.693 247.635 300.824 245.582 300.314C243.884 299.893 241.974 299.474 239.818 299.295C238.054 299.148 236.1 299.324 233.955 299.324C232.03 299.324 230.237 299.555 228.546 299.764C226.625 300.003 224.847 300.277 223.219 300.761C221.356 301.311 219.578 301.81 218.096 302.639C216.417 303.577 215.134 304.908 213.938 306.14C212.633 307.482 211.581 308.938 210.836 310.548C210.077 312.187 209.799 313.95 209.608 315.776C209.549 316.359 209.813 316.645 210.4 316.645C213.117 316.645 213.117 316.649 215.83 316.649C218.551 316.649 218.551 316.895 221.268 316.895C223.985 316.895 223.989 316.664 226.706 316.664C227.186 316.664 227.545 316.488 227.655 316.018C228.029 314.405 228.957 313.287 230.167 312.418C231.245 311.644 232.547 311.252 234.358 311.252C236.162 311.252 237.335 311.538 238.197 312.176C239.33 313.015 239.887 314.185 239.887 315.699C239.887 317.346 238.908 318.211 236.382 319.073C235.102 319.509 233.504 320.312 231.26 320.653C229.738 320.884 227.963 321.082 225.917 321.295C224.091 321.485 222.339 321.819 220.634 322.182C218.804 322.574 216.978 322.747 215.405 323.421C213.682 324.158 212.028 325.02 210.756 326.197C209.465 327.396 208.688 329.05 208.024 330.821C207.452 332.335 207.152 334.055 207.152 336.068C207.152 337.912 207.368 339.573 207.885 341.076C208.457 342.748 209.157 344.343 210.279 345.582C211.397 346.818 212.809 347.892 214.382 348.692C215.827 349.425 217.495 350.004 219.248 350.356C220.839 350.675 222.581 350.833 224.366 350.833C226.434 350.833 228.4 350.488 230.215 350.081C232.217 349.634 233.991 348.805 235.619 347.841C237.31 346.844 238.798 345.608 240.019 344.028C240.089 343.951 240.217 343.958 240.243 344.057C240.588 346.323 241.185 347.709 241.765 348.794C241.941 349.128 242.19 349.55 242.564 349.55C244.856 349.55 244.856 349.154 247.151 349.154C249.442 349.154 249.442 349.531 251.738 349.531C254.033 349.531 254.033 349.267 256.332 349.267C258.631 349.267 258.62 349.52 260.886 349.146C261.26 349.084 261.124 348.948 260.897 348.644C259.892 348.057 259.225 347.005 258.987 345.315C258.851 344.266 258.759 342.954 258.759 341.388ZM240.606 331.778C240.606 333.527 240.056 335.008 239.389 336.163C238.608 337.523 237.365 338.451 235.997 339.074C234.67 339.683 233.148 339.925 231.604 339.925C230.072 339.925 228.642 339.584 227.545 338.865C226.383 338.106 225.65 336.962 225.65 335.298C225.65 333.519 226.273 332.269 228.136 331.297C229.261 330.707 230.834 330.293 232.943 329.864C234.373 329.57 235.594 329.13 236.705 328.804C238.127 328.382 239.227 328.06 240.258 327.576C241.567 329.277 240.606 329.636 240.606 331.778ZM182.134 299.405C180.535 299.405 179.094 299.643 177.727 299.907C176.187 300.204 174.826 300.655 173.525 301.242C172.142 301.865 170.628 302.232 169.458 303.126C168.289 304.021 167.288 305.154 166.265 306.261C166.148 306.36 165.759 306.536 165.748 306.382C165.598 303.988 165.77 303.962 165.77 301.561C165.77 299.159 166.023 299.159 166.023 296.758C166.023 294.356 166.115 294.356 166.115 291.954C166.115 289.549 166.228 289.549 166.228 287.144C166.228 284.738 165.865 284.738 165.865 282.333C165.865 281.779 165.598 281.123 165.044 281.123C162.173 281.123 162.173 281.629 159.302 281.629C156.427 281.629 156.427 281.09 153.553 281.09C150.678 281.09 150.678 281.163 147.803 281.163C147.25 281.163 146.839 281.783 146.839 282.337C146.839 284.874 147.085 284.874 147.085 287.415C147.085 289.952 147.004 289.952 147.004 292.49C147.004 295.031 147.077 295.031 147.077 297.568C147.077 300.105 146.626 300.105 146.626 302.642C146.626 305.18 146.575 305.18 146.575 307.721C146.575 310.262 146.641 310.262 146.641 312.803C146.641 315.344 146.597 315.344 146.597 317.881C146.597 320.418 146.997 320.418 146.997 322.956C146.997 325.497 146.758 325.497 146.758 328.034C146.758 330.575 146.703 330.575 146.703 333.116C146.703 335.657 146.619 335.657 146.619 338.198C146.619 340.742 146.491 340.742 146.491 343.287C146.491 345.832 146.685 345.832 146.685 348.376C146.685 348.93 147.253 349.168 147.807 349.168C150.678 349.168 150.678 349.231 153.549 349.231C156.424 349.231 156.424 349.48 159.298 349.48C162.173 349.48 162.173 349.051 165.048 349.051C165.601 349.051 166.236 348.93 166.236 348.376C166.236 345.861 166.093 345.861 166.093 343.346C166.093 340.83 166.313 340.831 166.313 338.315C166.313 335.8 166.283 335.8 166.283 333.285C166.283 330.766 165.913 330.766 165.913 328.247C165.913 325.728 166.375 325.728 166.375 323.209C166.375 321.588 166.056 319.967 166.595 318.666C167.2 317.195 168.359 316.022 169.565 315.182C170.738 314.368 172.227 313.976 173.888 313.976C176.447 313.976 178.167 314.94 179.351 316.469C180.473 317.925 180.788 319.89 180.788 322.351C180.788 324.95 181.166 324.95 181.166 327.55C181.166 330.15 181.338 330.15 181.338 332.749C181.338 335.349 181.448 335.349 181.448 337.952C181.448 340.559 181.375 340.559 181.375 343.162C181.375 345.769 181.316 345.769 181.316 348.373C181.316 348.926 181.566 349.128 182.119 349.128C184.99 349.128 184.99 349.641 187.861 349.641C190.736 349.641 190.736 349.564 193.611 349.564C196.485 349.564 196.485 349.344 199.36 349.344C199.914 349.344 200.541 348.926 200.541 348.373C200.541 345.843 200.222 345.843 200.222 343.313C200.222 340.779 200.101 340.779 200.101 338.249C200.101 335.716 200.214 335.716 200.214 333.186C200.214 330.652 200.61 330.652 200.61 328.118C200.61 325.581 200.442 325.581 200.442 323.044C200.442 320.506 200.214 320.506 200.214 317.969C200.214 316.242 200.427 314.559 200.13 313.023C199.804 311.332 199.375 309.668 198.693 308.241C197.967 306.723 196.881 305.374 195.759 304.201C194.641 303.035 193.211 302.14 191.704 301.363C190.318 300.648 188.807 299.867 187.099 299.515C185.588 299.211 183.894 299.405 182.134 299.405ZM337.372 338.389C335.729 338.389 334.23 337.996 333.031 337.267C331.81 336.526 330.97 335.257 330.222 333.838C329.595 332.647 328.994 331.283 328.708 329.669C328.466 328.32 328.271 326.82 328.271 325.211C328.271 323.597 328.708 322.134 328.932 320.781C329.199 319.153 329.577 317.756 330.171 316.546C330.886 315.091 331.7 313.873 332.899 313.107C334.079 312.355 335.513 311.864 337.17 311.864C339.18 311.864 340.599 312.704 341.79 313.785C342.931 314.819 343.741 316.205 344.28 318.116C344.401 318.552 344.922 319.029 345.376 319.029C348.141 319.029 348.141 318.838 350.902 318.838C353.67 318.838 353.67 318.768 356.439 318.768C359.207 318.768 359.207 318.842 361.975 318.842C362.588 318.842 362.991 318.295 362.885 317.69C362.602 316.044 362.049 314.537 361.411 313.056C360.762 311.549 360.05 310.104 359.06 308.799C358.081 307.515 357.062 306.225 355.771 305.172C354.539 304.164 353.175 303.211 351.679 302.441C350.271 301.718 348.673 301.29 347.052 300.802C345.541 300.351 343.961 299.922 342.278 299.698C340.716 299.489 339.077 299.185 337.379 299.185C335.52 299.185 333.764 299.805 332.048 300.054C330.211 300.322 328.429 300.49 326.776 301.022C325.019 301.59 323.336 302.232 321.8 303.071C320.19 303.951 318.746 305.029 317.407 306.177C316.029 307.358 314.742 308.623 313.678 310.053C312.608 311.486 311.904 313.144 311.174 314.797C310.459 316.414 309.509 318.009 309.146 319.802C308.802 321.518 309.014 323.355 309.014 325.203C309.014 327.048 309.135 328.819 309.48 330.531C309.843 332.324 310.228 334.084 310.943 335.697C311.673 337.347 312.729 338.81 313.803 340.24C314.87 341.663 316.153 342.88 317.532 344.053C318.874 345.194 320.308 346.209 321.917 347.082C323.45 347.914 325.096 348.538 326.853 349.099C328.506 349.627 330.171 350.353 332.004 350.62C333.72 350.87 335.524 350.987 337.383 350.987C339.183 350.987 340.94 350.925 342.597 350.69C344.383 350.437 346.022 349.799 347.617 349.297C349.333 348.758 351.016 348.27 352.49 347.474C354.066 346.624 355.423 345.516 356.692 344.405C358.026 343.239 359.104 341.897 360.065 340.486C361.044 339.045 361.821 337.523 362.371 335.873C362.91 334.256 363.482 332.588 363.574 330.813C363.603 330.245 362.98 329.849 362.415 329.849C359.651 329.849 359.651 329.757 356.886 329.757C354.118 329.757 354.118 329.497 351.349 329.497C348.581 329.497 348.581 329.75 345.813 329.75C345.307 329.75 345.145 330.186 345.076 330.689C344.757 333.032 343.613 334.645 342.502 335.917C341.248 337.344 339.7 338.389 337.372 338.389ZM286.058 308.263C285.955 308.377 285.907 308.318 285.9 308.164C285.746 305.004 285.709 305.015 285.709 301.85C285.709 301.297 285.207 301.073 284.653 301.073C281.936 301.073 281.936 300.982 279.216 300.982C276.495 300.982 276.495 300.974 273.771 300.974C271.046 300.974 271.05 301.007 268.326 301.007C267.772 301.007 267.138 301.297 267.138 301.85C267.138 304.432 267.281 304.432 267.281 307.017C267.281 309.602 267.145 309.602 267.145 312.187C267.145 314.772 267.167 314.772 267.167 317.357C267.167 319.938 267.134 319.938 267.134 322.519C267.134 325.104 267.508 325.104 267.508 327.689C267.508 330.274 267.325 330.274 267.325 332.859C267.325 335.444 267.413 335.444 267.413 338.029C267.413 340.618 267.431 340.618 267.431 343.206C267.431 345.795 267.233 345.795 267.233 348.384C267.233 348.937 267.776 349.231 268.326 349.231C271.197 349.231 271.197 349.462 274.068 349.462C276.942 349.462 276.942 349.333 279.817 349.333C282.692 349.333 282.692 349.491 285.566 349.491C286.12 349.491 286.652 348.937 286.652 348.384C286.652 346.026 286.798 346.026 286.798 343.665C286.798 341.307 286.765 341.307 286.765 338.946C286.765 336.585 286.553 336.585 286.553 334.22C286.553 331.855 286.384 331.858 286.384 329.493C286.384 327.517 286.85 325.761 287.268 324.188C287.774 322.303 288.569 320.745 289.643 319.45C290.78 318.079 292.247 317.195 293.977 316.499C295.506 315.883 297.171 315.292 299.129 315.208C300.772 315.138 302.565 315.069 304.49 315.377C304.746 315.377 304.662 315.527 304.68 315.27C304.871 312.898 304.662 312.909 304.662 310.533C304.662 308.15 305.014 308.15 305.014 305.77C305.014 303.39 304.948 303.387 304.948 301.007C304.948 300.549 304.567 300.274 304.123 300.167C303.525 300.025 302.763 300.014 301.74 300.014C300.093 300.014 298.542 299.911 297.083 300.219C295.525 300.545 294.054 301.058 292.683 301.792C291.356 302.499 290.212 303.537 289.035 304.677C287.993 305.682 287.011 306.874 286.058 308.263ZM481.504 341.388C481.504 338.964 481.706 338.964 481.706 336.541C481.706 334.117 481.79 334.117 481.79 331.69C481.79 329.266 481.753 329.266 481.753 326.839C481.753 324.408 481.526 324.408 481.526 321.98C481.526 319.553 481.302 319.549 481.302 317.122C481.302 315.043 481.467 313.056 480.917 311.299C480.323 309.4 479.128 307.816 477.881 306.32C476.693 304.894 475.205 303.713 473.415 302.672C471.828 301.759 470.185 300.71 468.128 300.201C466.43 299.779 464.487 299.533 462.331 299.354C460.567 299.207 458.617 299.541 456.475 299.541C454.55 299.541 452.776 299.691 451.086 299.904C449.164 300.142 447.327 300.138 445.699 300.619C443.837 301.169 442.124 301.85 440.643 302.679C438.964 303.618 437.475 304.729 436.276 305.961C434.971 307.303 434.149 308.956 433.405 310.566C432.646 312.205 432.14 313.928 431.953 315.754C431.894 316.337 432.338 316.774 432.925 316.774C435.642 316.774 435.642 316.667 438.355 316.667C441.076 316.667 441.076 316.752 443.793 316.752C446.51 316.752 446.513 316.964 449.23 316.964C449.71 316.964 450.106 316.491 450.213 316.022C450.587 314.409 451.463 313.254 452.669 312.388C453.747 311.615 455.067 311.252 456.882 311.252C458.686 311.252 460.061 311.266 460.923 311.904C462.056 312.744 462.188 314.185 462.188 315.699C462.188 317.346 461.543 318.53 459.016 319.388C457.737 319.824 455.969 319.912 453.729 320.25C452.207 320.481 450.447 320.646 448.405 320.858C446.579 321.049 444.874 321.826 443.173 322.193C441.343 322.585 439.466 322.633 437.893 323.308C436.17 324.045 434.813 325.284 433.541 326.465C432.25 327.664 431.121 329.013 430.453 330.78C429.881 332.298 429.346 334.055 429.346 336.068C429.346 337.912 429.859 339.591 430.373 341.094C430.945 342.766 431.704 344.336 432.826 345.575C433.944 346.811 435.451 347.687 437.024 348.483C438.469 349.216 440.086 349.737 441.838 350.089C443.43 350.408 445.116 350.723 446.906 350.723C448.974 350.723 450.884 350.232 452.695 349.825C454.697 349.377 456.545 348.835 458.173 347.874C459.863 346.877 461.194 345.483 462.415 343.907C462.485 343.83 462.8 343.954 462.822 344.053C463.167 346.319 463.42 347.878 463.999 348.959C464.175 349.293 464.722 349.245 465.099 349.245C467.391 349.245 467.391 349.348 469.686 349.348C471.978 349.348 471.978 349.41 474.273 349.41C476.569 349.41 476.569 349.436 478.868 349.436C481.163 349.436 481.192 349.74 483.458 349.366C483.832 349.304 483.649 348.967 483.422 348.662C482.417 348.076 481.907 346.994 481.669 345.304C481.519 344.248 481.504 342.954 481.504 341.388ZM462.907 331.778C462.907 333.527 462.342 334.872 461.678 336.027C460.897 337.388 459.779 338.205 458.411 338.829C457.084 339.437 455.676 339.731 454.132 339.731C452.6 339.731 451.144 339.621 450.048 338.906C448.885 338.147 447.906 336.962 447.906 335.298C447.906 333.519 448.904 332.46 450.763 331.484C451.888 330.894 453.329 330.131 455.441 329.699C456.871 329.405 458.103 329.053 459.214 328.723C460.637 328.302 461.656 328.104 462.687 327.623C463.823 329.435 462.907 329.636 462.907 331.778ZM489.189 282.34C489.189 284.878 488.977 284.878 488.977 287.419C488.977 289.956 489.017 289.956 489.017 292.493C489.017 295.034 488.661 295.034 488.661 297.572C488.661 300.109 489.097 300.109 489.097 302.646C489.097 305.183 488.878 305.183 488.878 307.724C488.878 310.265 488.874 310.265 488.874 312.806C488.874 315.347 488.635 315.347 488.635 317.885C488.635 320.422 488.632 320.422 488.632 322.959C488.632 325.5 488.889 325.5 488.889 328.038C488.889 330.579 488.617 330.579 488.617 333.12C488.617 335.661 489.222 335.661 489.222 338.202C489.222 340.746 488.969 340.746 488.969 343.291C488.969 345.835 489.237 345.835 489.237 348.38C489.237 348.934 489.365 349.139 489.919 349.139C492.874 349.139 492.874 349.601 495.829 349.601C498.788 349.601 498.788 349.344 501.751 349.344C504.71 349.344 504.71 349.528 507.673 349.528C508.226 349.528 508.553 348.934 508.553 348.38C508.553 345.843 508.927 345.843 508.927 343.302C508.927 340.765 508.806 340.764 508.806 338.227C508.806 335.686 508.934 335.686 508.934 333.149C508.934 330.612 508.395 330.612 508.395 328.074C508.395 325.537 508.828 325.537 508.828 322.996C508.828 320.455 508.501 320.455 508.501 317.918C508.501 315.38 508.853 315.377 508.853 312.839C508.853 310.302 508.982 310.302 508.982 307.765C508.982 305.224 509 305.224 509 302.686C509 300.146 508.868 300.146 508.868 297.605C508.868 295.064 508.487 295.064 508.487 292.523C508.487 289.978 508.868 289.978 508.868 287.433C508.868 284.889 508.421 284.889 508.421 282.344C508.421 281.79 508.23 281.658 507.676 281.658C504.721 281.658 504.721 281.086 501.766 281.086C498.807 281.086 498.807 281.237 495.844 281.237C492.885 281.237 492.885 281.673 489.922 281.673C489.369 281.666 489.189 281.787 489.189 282.34ZM396.827 299.313C394.96 299.313 393.156 299.478 391.44 299.724C389.6 299.988 387.843 300.42 386.186 300.948C384.422 301.509 382.849 302.382 381.313 303.218C379.7 304.094 378.141 304.985 376.803 306.129C375.424 307.31 374.086 308.546 373.023 309.979C371.956 311.417 371.098 313.03 370.372 314.687C369.664 316.308 369.396 318.097 369.041 319.89C368.7 321.606 368.381 323.359 368.381 325.207C368.381 327.055 368.407 328.859 368.747 330.575C369.107 332.372 369.877 334.003 370.584 335.62C371.31 337.274 371.879 339.038 372.949 340.471C374.016 341.898 375.292 343.239 376.675 344.413C378.017 345.553 379.722 346.257 381.335 347.126C382.871 347.955 384.529 348.545 386.292 349.102C387.946 349.627 389.64 350.151 391.477 350.411C393.193 350.657 394.968 350.756 396.83 350.756C398.689 350.756 400.512 351.031 402.22 350.785C404.057 350.525 405.847 350.122 407.493 349.601C409.253 349.044 410.687 347.841 412.212 347.012C413.821 346.14 415.482 345.432 416.813 344.288C418.185 343.111 419.417 341.784 420.469 340.35C421.525 338.917 422.42 337.344 423.135 335.686C423.831 334.073 424.015 332.276 424.363 330.483C424.697 328.775 425.089 327.044 425.089 325.203C425.089 323.359 424.92 321.584 424.587 319.872C424.238 318.079 423.963 316.264 423.27 314.643C422.555 312.986 421.642 311.38 420.59 309.939C419.538 308.502 418.188 307.259 416.821 306.074C415.493 304.923 413.986 303.926 412.38 303.046C410.855 302.21 409.187 301.539 407.427 300.974C405.777 300.446 404.002 300.241 402.165 299.977C400.449 299.742 398.686 299.313 396.827 299.313ZM396.621 338.807C394.938 338.807 393.549 338.407 392.357 337.578C391.18 336.757 390.238 335.606 389.53 334.106C388.94 332.856 388.335 331.429 388.063 329.787C387.836 328.39 387.869 326.842 387.869 325.211C387.869 323.579 388.115 322.079 388.342 320.682C388.61 319.036 388.965 317.577 389.556 316.326C390.263 314.823 391.015 313.43 392.192 312.608C393.384 311.78 394.935 311.442 396.614 311.442C398.293 311.442 399.69 312.025 400.904 312.85C402.099 313.664 403.262 314.706 403.995 316.198C404.611 317.448 404.684 319.029 404.97 320.675C405.212 322.079 405.348 323.572 405.348 325.211C405.348 326.85 405.605 328.412 405.363 329.812C405.077 331.462 404.699 333.017 404.079 334.271C403.342 335.763 402.213 336.929 401.018 337.743C399.811 338.565 398.297 338.807 396.621 338.807Z" fill="black"/>
</svg>
