<svg width="1409" height="321" viewBox="0 0 1409 321" fill="none" xmlns="http://www.w3.org/2000/svg">
<path d="M372.626 161.013C372.626 164.929 372.912 168.936 372.08 172.599C371.222 176.38 369.264 179.896 367.617 183.31C365.945 186.778 363.767 189.99 361.388 192.968C358.997 195.96 356.841 199.41 353.845 201.801C350.868 204.18 347.198 205.878 343.733 207.553C340.319 209.2 336.645 210.729 332.865 211.587C329.202 212.419 325.235 211.359 321.322 211.359C317.406 211.359 313.501 212.151 309.839 211.319C306.058 210.461 302.373 209.086 298.963 207.44C295.495 205.768 291.824 204.114 288.847 201.735C285.855 199.344 282.962 196.502 280.571 193.507C278.192 190.529 276.685 186.778 275.013 183.313C273.366 179.9 272.589 176.116 271.727 172.332C270.895 168.669 269.744 164.925 269.744 161.009C269.744 157.093 270.202 153.192 271.038 149.529C271.896 145.749 272.754 141.822 274.4 138.408C276.072 134.939 279.178 132.27 281.558 129.293C283.948 126.301 286.255 123.17 289.247 120.779C292.224 118.399 295.506 116.262 298.971 114.59C302.384 112.943 305.996 111.286 309.776 110.424C313.439 109.592 317.406 110.74 321.322 110.74C325.238 110.74 328.868 111.084 332.531 111.917C336.312 112.775 340.308 112.859 343.718 114.505C347.187 116.177 349.937 119.012 352.918 121.391C355.91 123.782 359.514 125.652 361.905 128.647C364.284 131.625 365.175 135.618 366.847 139.086C368.494 142.496 369.729 145.98 370.587 149.764C371.42 153.43 372.626 157.101 372.626 161.013ZM325.763 255.3C325.315 256.961 323.552 258.219 321.322 258.219C319.243 258.219 317.333 258.032 313.347 258.032C309.354 258.032 309.354 258.578 305.365 258.578C301.376 258.578 301.376 258.883 297.387 258.883C293.394 258.883 293.394 259.088 289.404 259.088C285.415 259.088 285.411 258.428 281.422 258.428C277.436 258.428 277.436 258.696 273.451 258.696C269.462 258.696 269.462 258.267 265.469 258.267C261.476 258.267 261.476 258.883 257.479 258.883C253.482 258.883 253.482 257.702 249.489 257.702C245.493 257.702 245.493 258.593 241.496 258.593C237.492 258.593 237.492 259.037 233.492 259.037C229.491 259.037 229.488 258.567 225.484 258.553C225.469 258.553 225.495 258.479 225.48 258.479C222.65 258.446 219.845 258.098 217.076 257.827C214.264 257.552 211.606 256.463 208.867 255.949C206.091 255.432 203.165 255.682 200.477 254.934C197.76 254.178 195.175 253.009 192.561 252.026C189.925 251.036 187.571 249.833 185.048 248.627C182.511 247.413 179.328 246.563 176.916 245.14C174.496 243.714 171.896 241.785 169.612 240.161C167.324 238.533 165.413 237.334 163.279 235.515C161.142 233.697 159.572 231.225 157.6 229.231C155.627 227.236 153.533 225.344 151.737 223.184C149.947 221.028 148.583 218.539 146.981 216.232C145.383 213.933 143.755 211.66 142.358 209.218C140.968 206.791 139.201 204.525 138.016 201.973C136.843 199.436 135.505 196.898 134.548 194.247C133.598 191.622 132.799 188.868 132.076 186.144C131.361 183.449 131.526 180.516 131.042 177.736C130.566 174.994 130.665 172.181 130.426 169.362C130.188 166.59 129 163.836 129 161.006C129 158.171 129.708 155.377 129.942 152.609C130.184 149.793 129.598 146.852 130.074 144.11C130.558 141.327 131.662 138.643 132.377 135.948C133.099 133.223 134.621 130.756 135.567 128.13C136.524 125.479 136.454 122.392 137.628 119.855C138.808 117.303 140.323 114.85 141.716 112.423C143.113 109.984 145.401 108.089 147 105.79C148.602 103.483 150.56 101.492 152.353 99.3364C154.146 97.1767 155.704 94.8447 157.673 92.8501C159.646 90.8554 161.142 88.3145 163.279 86.4958C165.413 84.6808 168.299 83.8008 170.587 82.1692C172.868 80.5449 175.126 78.9315 177.55 77.5015C179.959 76.0826 182.108 74.1319 184.645 72.9183C187.168 71.7119 189.928 70.9896 192.565 69.9996C195.179 69.0206 197.79 67.9426 200.507 67.1873C203.194 66.4393 206.146 66.8903 208.922 66.3733C211.661 65.8636 214.29 64.7637 217.106 64.4887C219.874 64.2173 222.019 63.8763 224.853 63.8397C224.868 63.8397 226.305 63.7407 226.32 63.7407C230.309 63.726 229.884 64.1293 233.869 64.1293C237.862 64.1293 239.032 63.4107 243.025 63.4107C247.014 63.4107 245.438 63.6087 249.427 63.6087C253.42 63.6087 253.42 63.0697 257.409 63.0697C261.399 63.0697 261.402 63.5133 265.392 63.5133C269.377 63.5133 269.377 63 273.363 63C277.352 63 277.352 63.8103 281.345 63.8103C285.342 63.8103 286.328 63.803 290.325 63.803C294.321 63.803 294.16 64.1587 298.153 64.1587C302.15 64.1587 302.179 63.6343 306.176 63.6343C310.18 63.6343 309.322 64.056 313.322 64.056C317.326 64.056 321.326 63.8763 321.326 63.8763C323.555 63.8763 325.521 65.0056 325.968 66.6666C326.47 68.533 325.279 69.6329 321.689 69.6329C321.689 69.6329 315.753 69.9886 312.977 70.2453C310.15 70.5056 307.29 70.7329 304.544 71.2426C301.757 71.7596 298.894 71.9576 296.202 72.7203C293.482 73.4939 290.977 74.9202 288.363 75.9359C285.727 76.9589 283.167 78.0919 280.656 79.3422C278.129 80.6035 275.841 82.2205 273.454 83.7018C271.06 85.1868 268.772 86.7598 266.532 88.4575C264.284 90.1588 261.831 91.5778 259.752 93.4734C257.673 95.3691 256.108 97.756 254.212 99.835C252.316 101.914 250.219 103.788 248.518 106.035C246.824 108.276 244.675 110.307 243.19 112.701C241.709 115.088 240.825 117.783 239.567 120.31C238.317 122.817 236.601 125.16 235.582 127.793C234.57 130.404 233.517 133.084 232.744 135.805C231.981 138.496 232.502 141.521 231.985 144.304C231.475 147.05 229.953 149.69 229.697 152.517C229.444 155.293 229.521 158.168 229.521 161.009C229.521 163.851 229.814 166.692 230.067 169.468C230.328 172.295 230.709 175.364 231.218 178.11C231.735 180.897 233.22 184.38 233.983 187.072C234.757 189.792 235.197 191.376 236.209 193.991C237.232 196.627 238.185 199.282 239.439 201.79C240.7 204.316 241.401 207.201 242.882 209.585C244.367 211.979 247.095 213.548 248.789 215.789C250.49 218.036 251.495 220.867 253.391 222.946C255.286 225.025 257.978 226.327 260.06 228.222C262.139 230.118 264.24 231.94 266.484 233.638C268.725 235.332 270.767 236.597 273.165 238.082C275.552 239.563 277.491 240.986 280.018 242.247C282.526 243.497 285.602 245.411 288.235 246.434C290.845 247.446 293.504 248.458 296.228 249.228C298.919 249.991 301.614 251.051 304.401 251.568C307.147 252.077 310.055 251.938 312.882 252.198C315.657 252.451 316.886 252.363 319.731 252.363C319.731 252.363 322.47 252.268 323.526 252.554C325.473 253.093 326.265 253.434 325.763 255.3Z" fill="black"/>
<path d="M532.623 177.415C537.293 177.415 537.293 177.358 541.97 177.358C546.64 177.358 546.64 177.878 551.318 177.878C556.002 177.878 556.002 177.232 560.679 177.232C565.363 177.232 565.363 177.351 570.04 177.351C571.187 177.351 571.798 178.334 571.658 179.471C571.25 182.764 570.448 185.866 569.47 188.941C568.472 192.086 567.628 195.245 566.101 198.102C564.554 201.008 562.986 203.935 560.981 206.49C558.949 209.081 556.614 211.453 554.194 213.623C551.641 215.925 548.582 217.448 545.733 219.217C542.878 220.986 540.24 223.261 537.04 224.51C533.981 225.704 530.555 226.153 527.137 226.904C523.965 227.599 520.674 228.575 517.157 228.898C513.929 229.192 510.511 228.757 506.966 228.757C503.541 228.757 500.193 228.898 496.957 228.54C493.56 228.16 490.283 227.48 487.118 226.714C483.805 225.921 480.443 225.353 477.398 224.166C474.24 222.931 471.49 220.895 468.641 219.266C465.709 217.596 462.937 215.778 460.363 213.721C457.747 211.629 455.138 209.523 452.908 207.066C450.671 204.602 449.201 201.563 447.387 198.769C445.586 195.996 443.146 193.539 441.781 190.464C440.445 187.46 439.095 184.322 438.194 181.065C437.329 177.913 437.336 174.466 436.9 171.104C436.478 167.868 436 164.547 436 161.15C436 157.752 437.097 154.509 437.526 151.273C437.969 147.918 438.251 144.639 439.137 141.487C440.044 138.237 441.085 135.106 442.428 132.102C443.8 129.041 445.502 126.212 447.302 123.44C449.124 120.646 450.911 117.845 453.147 115.381C455.377 112.924 457.923 110.79 460.532 108.691C463.106 106.62 465.448 104.107 468.36 102.422C471.202 100.78 474.261 99.2565 477.405 98.007C480.443 96.7996 483.721 95.873 487.026 95.0657C490.191 94.2865 493.511 93.4723 496.894 93.0792C500.129 92.7071 503.534 93.7671 506.952 93.7671C510.447 93.7671 513.851 93.4512 517.157 93.8233C520.645 94.2164 523.874 95.3325 527.095 96.1257C530.506 96.9611 533.664 98 536.724 99.2636C539.98 100.604 543.138 101.777 545.909 103.56C548.596 105.287 550.889 107.343 553.146 109.407C555.481 111.541 558.414 113.121 560.292 115.577C562.198 118.07 563.865 120.842 565.293 123.608C566.713 126.374 566.749 129.729 567.684 132.727C568.605 135.675 569.829 138.539 570.279 141.663C570.441 142.814 569.597 143.207 568.43 143.207C563.816 143.207 563.816 143.376 559.195 143.376C554.581 143.376 554.581 144.443 549.96 144.443C545.332 144.443 545.332 143.593 540.711 143.593C536.083 143.593 536.084 144.359 531.463 144.359C530.506 144.359 529.078 143.242 528.903 142.309C528.277 138.89 527.911 135.085 525.597 132.334C523.417 129.743 520.153 127.785 516.756 126.325C513.725 125.019 510.159 124.177 506.361 124.177C502.528 124.177 499.046 125.026 495.987 126.156C492.583 127.42 489.319 129.055 486.865 131.533C484.487 133.941 482.588 137.093 481.097 140.456C479.761 143.481 479.093 147.005 478.46 150.662C477.897 153.941 476.962 157.45 476.962 161.143C476.962 164.821 477.778 168.352 478.411 171.623C479.114 175.245 479.895 178.79 481.315 181.788C482.884 185.094 485.81 187.312 488.201 189.706C490.691 192.198 493.103 194.732 496.409 196.031C499.51 197.252 502.999 198.425 506.748 198.425C510.848 198.425 514.47 197 517.593 195.687C521.201 194.178 524.401 192.121 526.603 189.264C528.818 186.4 530.042 182.771 530.724 178.98C530.907 178.067 531.681 177.415 532.623 177.415ZM799.993 210.527C799.993 205.887 800.281 205.887 800.281 201.247C800.281 196.607 800.45 196.607 800.45 191.96C800.45 187.319 800.528 187.319 800.528 182.672C800.528 178.018 800.556 178.018 800.556 173.371C800.556 168.724 800.563 168.717 800.563 164.07C800.563 160.09 799.965 156.404 798.91 153.049C797.771 149.413 796.104 146.057 793.719 143.193C791.441 140.463 788.416 138.272 784.984 136.279C781.939 134.531 778.654 132.867 774.715 131.891C771.459 131.084 767.795 130.284 763.659 129.94C760.276 129.659 756.527 129.996 752.413 129.996C748.72 129.996 745.281 130.438 742.039 130.838C738.353 131.295 734.942 131.821 731.82 132.748C728.247 133.801 724.835 134.755 721.994 136.342C718.773 138.139 716.311 140.687 714.018 143.046C711.514 145.615 709.496 148.402 708.068 151.484C706.612 154.621 706.078 157.998 705.712 161.494C705.599 162.61 706.106 163.157 707.231 163.157C712.443 163.157 712.443 163.164 717.647 163.164C722.866 163.164 722.866 163.635 728.078 163.635C733.289 163.635 733.296 163.193 738.508 163.193C739.43 163.193 740.119 162.856 740.33 161.957C741.047 158.868 742.827 156.727 745.148 155.064C747.215 153.582 749.712 152.831 753.187 152.831C756.647 152.831 758.898 153.379 760.55 154.6C762.724 156.208 763.793 158.447 763.793 161.346C763.793 164.498 761.915 166.155 757.069 167.804C754.614 168.64 751.548 170.177 747.244 170.83C744.325 171.272 740.921 171.651 736.996 172.058C733.493 172.424 730.132 173.062 726.861 173.757C723.351 174.508 719.849 174.838 716.832 176.13C713.526 177.541 710.354 179.191 707.913 181.444C705.438 183.739 703.947 186.905 702.674 190.296C701.576 193.195 701 196.487 701 200.341C701 203.872 701.415 207.052 702.406 209.93C703.504 213.131 704.847 216.185 706.999 218.557C709.144 220.923 711.852 222.98 714.869 224.51C717.64 225.914 720.841 227.023 724.203 227.697C727.255 228.308 730.596 228.61 734.021 228.61C737.988 228.61 741.758 227.95 745.239 227.171C749.079 226.314 752.483 224.728 755.606 222.882C758.848 220.972 761.704 218.607 764.046 215.581C764.18 215.434 764.426 215.448 764.475 215.637C765.136 219.975 766.283 222.629 767.394 224.707C767.731 225.346 768.21 226.153 768.927 226.153C773.323 226.153 773.323 225.395 777.726 225.395C782.122 225.395 782.122 226.118 786.524 226.118C790.927 226.118 790.927 225.612 795.337 225.612C799.747 225.612 799.726 226.097 804.072 225.381C804.79 225.261 804.53 225.002 804.093 224.419C802.166 223.296 800.886 221.281 800.429 218.045C800.169 216.037 799.993 213.524 799.993 210.527ZM765.171 192.128C765.171 195.476 764.116 198.312 762.836 200.524C761.338 203.128 758.954 204.904 756.331 206.097C753.784 207.263 750.866 207.726 747.905 207.726C744.965 207.726 742.222 207.073 740.119 205.697C737.889 204.244 736.483 202.054 736.483 198.867C736.483 195.462 737.678 193.069 741.251 191.208C743.41 190.078 746.428 189.285 750.472 188.464C753.215 187.902 755.557 187.06 757.688 186.435C760.417 185.628 762.527 185.01 764.503 184.083C767.014 187.34 765.171 188.028 765.171 192.128ZM653.012 130.151C649.945 130.151 647.181 130.607 644.558 131.112C641.604 131.681 638.994 132.544 636.498 133.667C633.846 134.861 630.941 135.563 628.698 137.276C626.454 138.988 624.534 141.157 622.572 143.277C622.347 143.467 621.601 143.804 621.58 143.509C621.292 138.925 621.622 138.876 621.622 134.278C621.622 129.68 622.107 129.68 622.107 125.082C622.107 120.484 622.283 120.484 622.283 115.886C622.283 111.281 622.501 111.281 622.501 106.676C622.501 102.071 621.805 102.071 621.805 97.4665C621.805 96.4065 621.292 95.15 620.23 95.15C614.723 95.15 614.723 96.1187 609.216 96.1187C603.701 96.1187 603.701 95.0868 598.187 95.0868C592.673 95.0868 592.673 95.2272 587.159 95.2272C586.097 95.2272 585.309 96.4135 585.309 97.4735C585.309 102.331 585.781 102.331 585.781 107.196C585.781 112.054 585.626 112.054 585.626 116.911C585.626 121.776 585.767 121.776 585.767 126.634C585.767 131.491 584.901 131.491 584.901 136.349C584.901 141.207 584.803 141.207 584.803 146.071C584.803 150.936 584.93 150.936 584.93 155.801C584.93 160.665 584.845 160.665 584.845 165.523C584.845 170.381 585.612 170.381 585.612 175.238C585.612 180.103 585.155 180.103 585.155 184.961C585.155 189.826 585.049 189.826 585.049 194.69C585.049 199.555 584.887 199.555 584.887 204.42C584.887 209.291 584.641 209.291 584.641 214.163C584.641 219.035 585.014 219.035 585.014 223.906C585.014 224.966 586.104 225.423 587.166 225.423C592.673 225.423 592.673 225.542 598.18 225.542C603.694 225.542 603.694 226.019 609.208 226.019C614.723 226.019 614.723 225.198 620.237 225.198C621.299 225.198 622.515 224.966 622.515 223.906C622.515 219.091 622.241 219.091 622.241 214.275C622.241 209.46 622.663 209.46 622.663 204.644C622.663 199.829 622.607 199.829 622.607 195.013C622.607 190.191 621.896 190.191 621.896 185.368C621.896 180.545 622.783 180.545 622.783 175.723C622.783 172.62 622.171 169.517 623.205 167.025C624.365 164.21 626.588 161.964 628.902 160.357C631.152 158.798 634.008 158.047 637.194 158.047C642.103 158.047 645.402 159.893 647.673 162.82C649.826 165.607 650.43 169.37 650.43 174.08C650.43 179.057 651.155 179.057 651.155 184.034C651.155 189.011 651.485 189.011 651.485 193.988C651.485 198.965 651.696 198.965 651.696 203.949C651.696 208.94 651.556 208.94 651.556 213.924C651.556 218.915 651.443 218.915 651.443 223.899C651.443 224.959 651.922 225.346 652.984 225.346C658.491 225.346 658.491 226.328 663.998 226.328C669.512 226.328 669.512 226.181 675.026 226.181C680.54 226.181 680.54 225.76 686.054 225.76C687.116 225.76 688.319 224.959 688.319 223.899C688.319 219.056 687.707 219.056 687.707 214.212C687.707 209.362 687.475 209.362 687.475 204.518C687.475 199.667 687.693 199.667 687.693 194.824C687.693 189.973 688.452 189.973 688.452 185.122C688.452 180.265 688.129 180.265 688.129 175.407C688.129 170.549 687.693 170.549 687.693 165.692C687.693 162.385 688.101 159.163 687.531 156.222C686.905 152.986 686.082 149.799 684.774 147.068C683.381 144.162 681.3 141.579 679.147 139.332C677.002 137.1 674.259 135.387 671.369 133.899C668.71 132.53 665.812 131.035 662.535 130.361C659.637 129.778 656.388 130.151 653.012 130.151ZM950.786 204.785C947.636 204.785 944.759 204.033 942.459 202.637C940.117 201.219 938.506 198.79 937.072 196.073C935.869 193.792 934.715 191.18 934.167 188.092C933.703 185.508 933.33 182.637 933.33 179.556C933.33 176.467 934.167 173.666 934.596 171.076C935.109 167.959 935.834 165.284 936.973 162.968C938.345 160.181 939.906 157.851 942.206 156.383C944.471 154.944 947.221 154.004 950.4 154.004C954.254 154.004 956.976 155.611 959.262 157.682C961.449 159.662 963.003 162.315 964.037 165.972C964.269 166.808 965.268 167.72 966.14 167.72C971.443 167.72 971.443 167.355 976.739 167.355C982.049 167.355 982.049 167.222 987.36 167.222C992.67 167.222 992.67 167.362 997.98 167.362C999.154 167.362 999.928 166.316 999.724 165.158C999.182 162.006 998.12 159.121 996.897 156.285C995.652 153.4 994.287 150.634 992.388 148.135C990.51 145.678 988.555 143.207 986.079 141.193C983.716 139.262 981.1 137.437 978.23 135.963C975.529 134.58 972.463 133.759 969.354 132.825C966.457 131.962 963.425 131.14 960.197 130.712C957.201 130.312 954.057 129.729 950.8 129.729C947.235 129.729 943.866 130.916 940.574 131.393C937.051 131.905 933.632 132.228 930.46 133.246C927.091 134.334 923.863 135.563 920.916 137.17C917.829 138.855 915.057 140.919 912.49 143.116C909.846 145.376 907.377 147.798 905.337 150.536C903.284 153.281 901.933 156.454 900.534 159.62C899.162 162.715 897.341 165.769 896.644 169.201C895.983 172.487 896.391 176.004 896.391 179.542C896.391 183.073 896.623 186.463 897.284 189.741C897.981 193.174 898.719 196.543 900.091 199.632C901.49 202.791 903.516 205.592 905.577 208.33C907.623 211.053 910.085 213.384 912.729 215.63C915.304 217.813 918.054 219.758 921.141 221.429C924.081 223.022 927.239 224.215 930.608 225.289C933.78 226.3 936.973 227.69 940.49 228.203C943.781 228.68 947.242 228.905 950.808 228.905C954.261 228.905 957.63 228.785 960.809 228.336C964.234 227.852 967.378 226.63 970.437 225.668C973.729 224.637 976.957 223.703 979.785 222.18C982.809 220.551 985.411 218.431 987.845 216.304C990.405 214.072 992.473 211.503 994.315 208.8C996.193 206.041 997.684 203.128 998.739 199.969C999.773 196.873 1000.87 193.679 1001.05 190.282C1001.1 189.194 999.907 188.436 998.824 188.436C993.521 188.436 993.521 188.26 988.218 188.26C982.907 188.26 982.907 187.762 977.597 187.762C972.287 187.762 972.287 188.246 966.977 188.246C966.006 188.246 965.697 189.081 965.563 190.043C964.951 194.529 962.757 197.617 960.626 200.053C958.221 202.784 955.253 204.785 950.786 204.785ZM852.356 147.11C852.159 147.328 852.067 147.216 852.053 146.921C851.758 140.87 851.688 140.891 851.688 134.833C851.688 133.773 850.724 133.345 849.662 133.345C844.45 133.345 844.45 133.169 839.232 133.169C834.013 133.169 834.013 133.155 828.787 133.155C823.562 133.155 823.569 133.218 818.343 133.218C817.281 133.218 816.064 133.773 816.064 134.833C816.064 139.775 816.338 139.775 816.338 144.724C816.338 149.672 816.078 149.672 816.078 154.621C816.078 159.57 816.12 159.57 816.12 164.519C816.12 169.461 816.057 169.461 816.057 174.403C816.057 179.352 816.774 179.352 816.774 184.301C816.774 189.25 816.423 189.25 816.423 194.199C816.423 199.148 816.592 199.148 816.592 204.097C816.592 209.053 816.627 209.053 816.627 214.009C816.627 218.965 816.247 218.965 816.247 223.92C816.247 224.98 817.288 225.542 818.343 225.542C823.85 225.542 823.85 225.984 829.357 225.984C834.871 225.984 834.871 225.739 840.385 225.739C845.899 225.739 845.899 226.04 851.413 226.04C852.475 226.04 853.495 224.98 853.495 223.92C853.495 219.407 853.777 219.407 853.777 214.886C853.777 210.372 853.713 210.372 853.713 205.852C853.713 201.331 853.305 201.331 853.305 196.803C853.305 192.275 852.982 192.282 852.982 187.755C852.982 183.971 853.875 180.609 854.677 177.597C855.647 173.989 857.174 171.006 859.234 168.528C861.415 165.902 864.228 164.21 867.548 162.877C870.481 161.697 873.674 160.567 877.429 160.406C880.58 160.272 884.02 160.139 887.712 160.729C888.204 160.729 888.043 161.016 888.078 160.525C888.444 155.983 888.043 156.004 888.043 151.455C888.043 146.893 888.718 146.893 888.718 142.337C888.718 137.781 888.591 137.774 888.591 133.218C888.591 132.341 887.86 131.814 887.009 131.611C885.862 131.337 884.399 131.316 882.437 131.316C879.279 131.316 876.304 131.119 873.505 131.709C870.516 132.334 867.695 133.316 865.065 134.72C862.519 136.075 860.324 138.062 858.067 140.245C856.069 142.168 854.184 144.45 852.356 147.11ZM1227.26 210.527C1227.26 205.887 1227.64 205.887 1227.64 201.247C1227.64 196.607 1227.81 196.607 1227.81 191.96C1227.81 187.319 1227.74 187.319 1227.74 182.672C1227.74 178.018 1227.3 178.018 1227.3 173.371C1227.3 168.724 1226.87 168.717 1226.87 164.07C1226.87 160.09 1227.19 156.285 1226.13 152.923C1224.99 149.286 1222.7 146.254 1220.31 143.39C1218.03 140.659 1215.17 138.399 1211.74 136.405C1208.7 134.657 1205.55 132.65 1201.6 131.674C1198.34 130.867 1194.62 130.396 1190.48 130.052C1187.1 129.771 1183.36 130.41 1179.25 130.41C1175.56 130.41 1172.15 130.698 1168.91 131.105C1165.22 131.561 1161.7 131.554 1158.58 132.474C1155 133.527 1151.72 134.833 1148.88 136.419C1145.66 138.216 1142.8 140.343 1140.5 142.702C1138 145.271 1136.42 148.437 1134.99 151.519C1133.54 154.657 1132.57 157.956 1132.21 161.452C1132.1 162.568 1132.95 163.403 1134.07 163.403C1139.29 163.403 1139.29 163.2 1144.49 163.2C1149.71 163.2 1149.71 163.361 1154.92 163.361C1160.13 163.361 1160.14 163.768 1165.35 163.768C1166.27 163.768 1167.03 162.863 1167.24 161.964C1167.95 158.875 1169.63 156.664 1171.95 155.007C1174.02 153.526 1176.55 152.831 1180.03 152.831C1183.49 152.831 1186.13 152.859 1187.78 154.081C1189.95 155.688 1190.21 158.447 1190.21 161.346C1190.21 164.498 1188.97 166.766 1184.12 168.408C1181.67 169.244 1178.28 169.412 1173.98 170.058C1171.06 170.5 1167.69 170.816 1163.77 171.223C1160.27 171.588 1157 173.076 1153.73 173.778C1150.22 174.529 1146.62 174.621 1143.6 175.912C1140.3 177.323 1137.7 179.696 1135.26 181.956C1132.78 184.252 1130.61 186.835 1129.33 190.219C1128.24 193.125 1127.21 196.487 1127.21 200.341C1127.21 203.872 1128.19 207.087 1129.18 209.965C1130.28 213.166 1131.73 216.171 1133.88 218.543C1136.03 220.909 1138.92 222.587 1141.94 224.11C1144.71 225.514 1147.81 226.511 1151.17 227.185C1154.22 227.795 1157.46 228.399 1160.89 228.399C1164.86 228.399 1168.52 227.458 1172 226.679C1175.84 225.823 1179.38 224.784 1182.5 222.945C1185.75 221.035 1188.3 218.368 1190.64 215.349C1190.78 215.202 1191.38 215.441 1191.42 215.63C1192.08 219.968 1192.57 222.952 1193.68 225.023C1194.02 225.661 1195.07 225.57 1195.79 225.57C1200.19 225.57 1200.19 225.767 1204.59 225.767C1208.99 225.767 1208.99 225.886 1213.39 225.886C1217.79 225.886 1217.79 225.935 1222.2 225.935C1226.6 225.935 1226.66 226.518 1231.01 225.802C1231.72 225.682 1231.37 225.037 1230.94 224.454C1229.01 223.331 1228.03 221.26 1227.57 218.024C1227.29 216.002 1227.26 213.524 1227.26 210.527ZM1191.58 192.128C1191.58 195.476 1190.5 198.053 1189.23 200.264C1187.73 202.868 1185.59 204.434 1182.96 205.627C1180.42 206.792 1177.72 207.354 1174.75 207.354C1171.81 207.354 1169.02 207.143 1166.92 205.774C1164.69 204.321 1162.81 202.054 1162.81 198.867C1162.81 195.462 1164.72 193.434 1168.29 191.566C1170.45 190.436 1173.21 188.976 1177.26 188.148C1180.01 187.586 1182.37 186.912 1184.5 186.281C1187.23 185.473 1189.19 185.094 1191.16 184.175C1193.34 187.642 1191.58 188.028 1191.58 192.128ZM1242 97.4805C1242 102.338 1241.59 102.338 1241.59 107.203C1241.59 112.061 1241.67 112.061 1241.67 116.918C1241.67 121.783 1240.99 121.783 1240.99 126.641C1240.99 131.498 1241.82 131.498 1241.82 136.356C1241.82 141.214 1241.4 141.214 1241.4 146.078C1241.4 150.943 1241.39 150.943 1241.39 155.808C1241.39 160.672 1240.94 160.672 1240.94 165.53C1240.94 170.388 1240.93 170.388 1240.93 175.245C1240.93 180.11 1241.42 180.11 1241.42 184.968C1241.42 189.833 1240.9 189.833 1240.9 194.697C1240.9 199.562 1242.06 199.562 1242.06 204.427C1242.06 209.298 1241.58 209.298 1241.58 214.17C1241.58 219.042 1242.09 219.042 1242.09 223.913C1242.09 224.973 1242.34 225.367 1243.4 225.367C1249.07 225.367 1249.07 226.251 1254.74 226.251C1260.41 226.251 1260.41 225.76 1266.1 225.76C1271.77 225.76 1271.77 226.111 1277.45 226.111C1278.52 226.111 1279.14 224.973 1279.14 223.913C1279.14 219.056 1279.86 219.056 1279.86 214.191C1279.86 209.333 1279.63 209.333 1279.63 204.476C1279.63 199.611 1279.87 199.611 1279.87 194.753C1279.87 189.896 1278.84 189.896 1278.84 185.038C1278.84 180.18 1279.67 180.18 1279.67 175.316C1279.67 170.451 1279.04 170.451 1279.04 165.593C1279.04 160.736 1279.72 160.729 1279.72 155.871C1279.72 151.013 1279.96 151.013 1279.96 146.156C1279.96 141.291 1280 141.291 1280 136.433C1280 131.569 1279.75 131.569 1279.75 126.704C1279.75 121.839 1279.02 121.839 1279.02 116.974C1279.02 112.103 1279.75 112.103 1279.75 107.231C1279.75 102.359 1278.89 102.359 1278.89 97.4875C1278.89 96.4276 1278.52 96.1749 1277.46 96.1749C1271.79 96.1749 1271.79 95.0798 1266.12 95.0798C1260.45 95.0798 1260.45 95.3676 1254.76 95.3676C1249.09 95.3676 1249.09 96.2029 1243.41 96.2029C1242.34 96.1889 1242 96.4206 1242 97.4805ZM1064.83 129.975C1061.25 129.975 1057.79 130.291 1054.5 130.761C1050.97 131.267 1047.6 132.095 1044.42 133.106C1041.04 134.18 1038.02 135.851 1035.07 137.451C1031.98 139.129 1028.99 140.835 1026.42 143.025C1023.78 145.285 1021.21 147.651 1019.17 150.396C1017.12 153.147 1015.48 156.236 1014.09 159.409C1012.73 162.512 1012.22 165.937 1011.53 169.37C1010.88 172.655 1010.27 176.011 1010.27 179.549C1010.27 183.087 1010.32 186.54 1010.97 189.826C1011.66 193.265 1013.14 196.389 1014.49 199.485C1015.89 202.651 1016.98 206.027 1019.03 208.772C1021.08 211.503 1023.52 214.072 1026.18 216.318C1028.75 218.501 1032.02 219.849 1035.12 221.513C1038.06 223.099 1041.24 224.229 1044.62 225.296C1047.8 226.3 1051.05 227.304 1054.57 227.802C1057.86 228.273 1061.27 228.462 1064.84 228.462C1068.4 228.462 1071.9 228.989 1075.18 228.518C1078.7 228.02 1082.13 227.248 1085.29 226.251C1088.67 225.184 1091.42 222.882 1094.34 221.295C1097.43 219.624 1100.62 218.27 1103.17 216.079C1105.8 213.826 1108.16 211.285 1110.18 208.54C1112.21 205.795 1113.92 202.784 1115.29 199.611C1116.63 196.522 1116.98 193.083 1117.65 189.65C1118.29 186.379 1119.04 183.066 1119.04 179.542C1119.04 176.011 1118.72 172.613 1118.08 169.335C1117.41 165.902 1116.88 162.427 1115.55 159.325C1114.18 156.152 1112.43 153.077 1110.41 150.318C1108.4 147.567 1105.81 145.187 1103.18 142.919C1100.64 140.715 1097.75 138.806 1094.67 137.121C1091.74 135.521 1088.54 134.236 1085.16 133.155C1082 132.144 1078.6 131.751 1075.07 131.246C1071.78 130.796 1068.4 129.975 1064.83 129.975ZM1064.44 205.585C1061.21 205.585 1058.54 204.82 1056.26 203.233C1054 201.661 1052.19 199.457 1050.83 196.586C1049.7 194.192 1048.54 191.461 1048.02 188.316C1047.59 185.642 1047.65 182.679 1047.65 179.556C1047.65 176.432 1048.12 173.561 1048.56 170.886C1049.07 167.734 1049.75 164.94 1050.88 162.547C1052.24 159.669 1053.68 157.001 1055.94 155.429C1058.23 153.842 1061.2 153.196 1064.42 153.196C1067.64 153.196 1070.32 154.313 1072.65 155.892C1074.94 157.45 1077.17 159.444 1078.58 162.301C1079.76 164.695 1079.9 167.72 1080.45 170.872C1080.92 173.561 1081.18 176.418 1081.18 179.556C1081.18 182.693 1081.67 185.684 1081.2 188.365C1080.66 191.524 1079.93 194.501 1078.74 196.901C1077.33 199.758 1075.16 201.991 1072.87 203.549C1070.56 205.122 1067.65 205.585 1064.44 205.585Z" fill="black"/>
</svg>
