<svg width="163" height="163" viewBox="0 0 163 163" fill="none" xmlns="http://www.w3.org/2000/svg">
<g clip-path="url(#clip0_1_581)">
<path d="M35.3 0C15.81 0 0 15.91 0 35.41V127.74C0 147.24 15.81 162.94 35.3 162.94H127.63C147.13 162.94 162.94 147.24 162.94 127.74V35.41C162.94 15.91 147.13 0 127.63 0H35.3Z" fill="white"/>
<path d="M75.54 64.88L88.1 52.32C75.42 39.64 54.79 39.64 42.11 52.32C29.43 65 29.43 85.63 42.11 98.31L58.48 114.68L71.04 102.12L54.67 85.75C48.92 80 48.92 70.64 54.67 64.89C60.42 59.14 69.78 59.14 75.53 64.89L75.54 64.88Z" fill="url(#paint0_linear_1_581)"/>
<path d="M120.85 52.32C108.17 39.64 87.54 39.64 74.86 52.32L58.49 68.69C45.81 81.37 45.81 102 58.49 114.68C71.17 127.36 91.8 127.36 104.48 114.68L120.85 98.31C133.53 85.63 133.53 65 120.85 52.32ZM108.28 85.74L91.91 102.11C86.16 107.86 76.8 107.86 71.05 102.11C65.3 96.36 65.3 87 71.05 81.25L87.42 64.88C93.17 59.13 102.53 59.13 108.28 64.88C114.03 70.63 114.03 79.99 108.28 85.74Z" fill="url(#paint1_linear_1_581)"/>
</g>
<defs>
<linearGradient id="paint0_linear_1_581" x1="32.61" y1="78.74" x2="88.1" y2="78.74" gradientUnits="userSpaceOnUse">
<stop stop-color="#28BDD3"/>
<stop offset="1" stop-color="#D2EBFF"/>
</linearGradient>
<linearGradient id="paint1_linear_1_581" x1="62.72" y1="110.45" x2="119.94" y2="53.22" gradientUnits="userSpaceOnUse">
<stop stop-color="#FF6884"/>
<stop offset="0.5" stop-color="#FFBD2D"/>
<stop offset="1" stop-color="#FFCD00"/>
</linearGradient>
<clipPath id="clip0_1_581">
<rect width="162.94" height="162.94" fill="white"/>
</clipPath>
</defs>
</svg>
