<svg width="247" height="153" viewBox="0 0 247 153" fill="none" xmlns="http://www.w3.org/2000/svg">
<g clip-path="url(#clip0_1_580)">
<path d="M223.6 134.42V144.84C223.6 145.36 224.02 145.79 224.55 145.79H228.31C228.83 145.79 229.26 145.37 229.26 144.84V134.42C229.26 131.27 231.82 128.71 234.97 128.71C238.12 128.71 240.68 131.27 240.68 134.42V144.84C240.68 145.36 241.1 145.79 241.63 145.79H245.39C245.91 145.79 246.34 145.37 246.34 144.84V134.42C246.34 128.15 241.24 123.05 234.97 123.05C228.7 123.05 223.6 128.15 223.6 134.42Z" fill="black"/>
<path d="M32.38 123.36H28.74C28.2153 123.36 27.79 123.785 27.79 124.31V144.32C27.79 144.845 28.2153 145.27 28.74 145.27H32.38C32.9046 145.27 33.33 144.845 33.33 144.32V124.31C33.33 123.785 32.9046 123.36 32.38 123.36Z" fill="black"/>
<path d="M30.57 113.9C28.12 113.9 27 115.73 27 117.43C27 119.13 28.12 120.96 30.57 120.96C33.02 120.96 34.14 119.13 34.14 117.43C34.14 115.73 33.02 113.9 30.57 113.9Z" fill="black"/>
<path d="M71.25 123.36H67.61C67.0854 123.36 66.66 123.785 66.66 124.31V144.32C66.66 144.845 67.0854 145.27 67.61 145.27H71.25C71.7747 145.27 72.2 144.845 72.2 144.32V124.31C72.2 123.785 71.7747 123.36 71.25 123.36Z" fill="black"/>
<path d="M69.44 113.9C66.99 113.9 65.87 115.73 65.87 117.43C65.87 119.13 66.99 120.96 69.44 120.96C71.89 120.96 73.01 119.13 73.01 117.43C73.01 115.73 71.89 113.9 69.44 113.9Z" fill="black"/>
<path d="M53.12 124.15L50.42 128.34C50.14 128.78 49.68 128.78 49.39 128.34L46.69 124.15C46.41 123.71 45.75 123.35 45.23 123.35H40.47C39.95 123.35 39.75 123.71 40.03 124.15L46.05 133.51C46.33 133.95 46.33 134.66 46.05 135.1L40.03 144.46C39.75 144.9 39.94 145.26 40.47 145.26H45.23C45.75 145.26 46.41 144.9 46.69 144.46L49.39 140.27C49.67 139.83 50.13 139.83 50.42 140.27L53.12 144.46C53.4 144.9 54.06 145.26 54.58 145.26H59.34C59.86 145.26 60.06 144.9 59.78 144.46L53.76 135.1C53.48 134.66 53.48 133.95 53.76 133.51L59.78 124.15C60.06 123.71 59.87 123.35 59.34 123.35H54.58C54.06 123.35 53.4 123.71 53.12 124.15Z" fill="black"/>
<path d="M148.74 123.05C142.47 123.05 137.37 128.15 137.37 134.42C137.37 140.69 142.47 145.79 148.74 145.79C155.01 145.79 160.11 140.69 160.11 134.42C160.11 128.15 155.01 123.05 148.74 123.05ZM148.74 140.14C145.59 140.14 143.03 137.58 143.03 134.43C143.03 131.28 145.59 128.72 148.74 128.72C151.89 128.72 154.45 131.28 154.45 134.43C154.45 137.58 151.89 140.14 148.74 140.14Z" fill="black"/>
<path d="M122.37 129.15C124.12 129.15 125.75 130.02 126.73 131.47C126.88 131.69 127.17 131.76 127.39 131.63L131.86 129.05C131.97 128.99 132.05 128.88 132.08 128.76C132.11 128.64 132.09 128.51 132.02 128.41C129.92 125.05 126.32 123.05 122.37 123.05C116.1 123.05 111 128.15 111 134.42C111 140.69 116.1 145.79 122.37 145.79C126.32 145.79 129.93 143.79 132.02 140.43C132.09 140.32 132.11 140.2 132.08 140.08C132.05 139.96 131.97 139.85 131.86 139.79L127.39 137.21C127.17 137.08 126.88 137.15 126.73 137.37C125.74 138.82 124.11 139.69 122.37 139.69C119.46 139.69 117.1 137.33 117.1 134.42C117.1 131.51 119.46 129.15 122.37 129.15Z" fill="black"/>
<path d="M87.25 135.72L82.99 124.25C82.81 123.76 82.24 123.36 81.71 123.36H77.24C76.72 123.36 76.44 123.76 76.62 124.25L84.1 144.38C84.28 144.87 84.85 145.27 85.38 145.27H89.78C90.3 145.27 90.88 144.87 91.06 144.38L98.54 124.25C98.72 123.76 98.45 123.36 97.92 123.36H93.45C92.93 123.36 92.35 123.76 92.17 124.25L87.91 135.72C87.73 136.21 87.43 136.21 87.25 135.72Z" fill="black"/>
<path d="M3.2 126.53C1.13 128.7 0 131.55 0 134.56V151.84C0 152.36 0.42 152.79 0.95 152.79H4.72C5.24 152.79 5.67 152.37 5.67 151.84V134.22C5.71 132.65 6.38 131.2 7.55 130.15C8.71 129.09 10.22 128.58 11.79 128.68C14.63 128.88 16.9 131.17 17.08 134.01C17.18 135.61 16.64 137.13 15.54 138.29C14.46 139.44 12.94 140.1 11.37 140.1C10.3 140.1 9.26 139.8 8.35 139.23L8.28 139.18C8.28 139.18 8.21 139.56 8.21 140.08V144.35C8.21 144.87 8.23 145.3 8.24 145.31H8.27C9.48 145.66 10.74 145.8 12 145.73C17.76 145.41 22.47 140.65 22.72 134.88C22.86 131.68 21.7 128.67 19.46 126.39C17.22 124.11 14.22 122.91 11.03 123C8.05 123.08 5.27 124.33 3.19 126.52L3.2 126.53Z" fill="black"/>
<path d="M173.83 123.48H173.8C173.8 123.48 173.77 123.92 173.77 124.45V128.72C173.77 129.24 173.8 129.65 173.84 129.62L173.91 129.57C174.82 129 175.86 128.7 176.93 128.7C180.08 128.7 182.64 131.26 182.64 134.41C182.64 137.56 180.08 140.12 176.93 140.12C173.78 140.12 171.22 137.56 171.22 134.41V114.84C171.22 114.32 170.8 113.89 170.27 113.89H166.51C165.99 113.89 165.56 114.31 165.56 114.84V134.41C165.56 140.68 170.66 145.78 176.93 145.78C183.2 145.78 188.3 140.68 188.3 134.41C188.3 128.14 183.2 123.04 176.93 123.04C175.88 123.04 174.84 123.18 173.83 123.47V123.48Z" fill="black"/>
<path d="M194.05 134.42C194.05 140.69 199.15 145.79 205.42 145.79C206.47 145.79 207.51 145.65 208.52 145.36H208.55C208.55 145.36 208.58 144.92 208.58 144.39V140.12C208.58 139.6 208.55 139.19 208.51 139.22L208.44 139.27C207.53 139.84 206.49 140.14 205.42 140.14C202.27 140.14 199.71 137.58 199.71 134.43C199.71 131.28 202.27 128.72 205.42 128.72C208.57 128.72 211.13 131.28 211.13 134.43V144.85C211.13 145.37 211.55 145.8 212.08 145.8H215.84C216.36 145.8 216.79 145.38 216.79 144.85V134.43C216.79 128.16 211.69 123.06 205.42 123.06C199.15 123.06 194.05 128.16 194.05 134.43V134.42Z" fill="black"/>
<path d="M116.22 25.82L130.92 11.12C116.09 -3.71 91.95 -3.71 77.12 11.12C62.29 25.95 62.29 50.09 77.12 64.92L96.27 84.07L110.97 69.37L91.82 50.22C85.09 43.49 85.09 32.54 91.82 25.81C98.55 19.08 109.5 19.08 116.23 25.81L116.22 25.82Z" fill="url(#paint0_linear_1_580)"/>
<path d="M169.23 11.12C154.4 -3.71 130.26 -3.71 115.43 11.12L96.28 30.27C81.45 45.1 81.45 69.24 96.28 84.07C111.11 98.9 135.25 98.9 150.08 84.07L169.23 64.92C184.06 50.09 184.06 25.95 169.23 11.12ZM154.53 50.23L135.38 69.38C128.65 76.11 117.7 76.11 110.97 69.38C104.24 62.65 104.24 51.7 110.97 44.97L130.12 25.82C136.85 19.09 147.8 19.09 154.53 25.82C161.26 32.55 161.26 43.5 154.53 50.23Z" fill="url(#paint1_linear_1_580)"/>
</g>
<defs>
<linearGradient id="paint0_linear_1_580" x1="65.99" y1="42.04" x2="130.92" y2="42.04" gradientUnits="userSpaceOnUse">
<stop stop-color="#28BDD3"/>
<stop offset="1" stop-color="#D2EBFF"/>
</linearGradient>
<linearGradient id="paint1_linear_1_580" x1="101.22" y1="79.13" x2="168.17" y2="12.18" gradientUnits="userSpaceOnUse">
<stop stop-color="#FF6884"/>
<stop offset="0.5" stop-color="#FFBD2D"/>
<stop offset="1" stop-color="#FFCD00"/>
</linearGradient>
<clipPath id="clip0_1_580">
<rect width="246.35" height="152.78" fill="white"/>
</clipPath>
</defs>
</svg>
