<svg width="425" height="63" viewBox="0 0 425 63" fill="none" xmlns="http://www.w3.org/2000/svg">
<g clip-path="url(#clip0_1_582)">
<path d="M68.31 7.36003C60.07 -0.889971 47.47 -2.19997 37.84 3.41003C28.2 -2.19997 15.61 -0.889971 7.35999 7.36003C-2.46 17.18 -2.46 33.15 7.35999 42.96L20.04 55.64C29.86 65.46 45.83 65.46 55.64 55.64L68.32 42.96C78.14 33.14 78.14 17.17 68.32 7.36003H68.31ZM17.09 17.09C19.6 14.58 22.99 13.49 26.27 13.8L20.04 20.03C17.47 22.6 15.58 25.6 14.35 28.79C13.02 24.81 13.92 20.24 17.09 17.08V17.09ZM58.59 33.24L45.91 45.92C41.46 50.37 34.21 50.37 29.76 45.92C25.31 41.47 25.31 34.22 29.76 29.77L42.43 17.09C46.88 12.64 54.13 12.64 58.58 17.09C63.03 21.54 63.03 28.79 58.58 33.24H58.59Z" fill="black"/>
<path d="M394.14 32.93V46.73C394.14 47.42 394.7 47.99 395.4 47.99H400.38C401.07 47.99 401.64 47.43 401.64 46.73V32.93C401.64 28.76 405.03 25.37 409.2 25.37C413.37 25.37 416.76 28.76 416.76 32.93V46.73C416.76 47.42 417.32 47.99 418.02 47.99H423C423.69 47.99 424.26 47.43 424.26 46.73V32.93C424.26 24.63 417.51 17.88 409.21 17.88C400.91 17.88 394.16 24.63 394.16 32.93H394.14Z" fill="black"/>
<path d="M141.08 18.28H136.26C135.564 18.28 135 18.8442 135 19.54V46.02C135 46.7159 135.564 47.28 136.26 47.28H141.08C141.776 47.28 142.34 46.7159 142.34 46.02V19.54C142.34 18.8442 141.776 18.28 141.08 18.28Z" fill="black"/>
<path d="M138.67 5.77002C135.42 5.77002 133.94 8.19002 133.94 10.45C133.94 12.71 135.42 15.13 138.67 15.13C141.92 15.13 143.4 12.71 143.4 10.45C143.4 8.19002 141.92 5.77002 138.67 5.77002Z" fill="black"/>
<path d="M192.52 18.28H187.7C187.004 18.28 186.44 18.8442 186.44 19.54V46.02C186.44 46.7159 187.004 47.28 187.7 47.28H192.52C193.216 47.28 193.78 46.7159 193.78 46.02V19.54C193.78 18.8442 193.216 18.28 192.52 18.28Z" fill="black"/>
<path d="M190.11 5.77002C186.86 5.77002 185.38 8.19002 185.38 10.45C185.38 12.71 186.86 15.13 190.11 15.13C193.36 15.13 194.84 12.71 194.84 10.45C194.84 8.19002 193.36 5.77002 190.11 5.77002Z" fill="black"/>
<path d="M168.51 19.34L164.94 24.89C164.56 25.47 163.96 25.47 163.58 24.89L160.01 19.34C159.63 18.76 158.77 18.28 158.08 18.28H151.78C151.09 18.28 150.83 18.75 151.2 19.34L159.17 31.73C159.55 32.31 159.55 33.26 159.17 33.84L151.2 46.23C150.82 46.81 151.08 47.29 151.78 47.29H158.08C158.77 47.29 159.64 46.82 160.01 46.23L163.58 40.68C163.96 40.1 164.56 40.1 164.94 40.68L168.51 46.23C168.89 46.81 169.75 47.29 170.44 47.29H176.74C177.43 47.29 177.69 46.82 177.32 46.23L169.35 33.84C168.97 33.26 168.97 32.31 169.35 31.73L177.32 19.34C177.7 18.76 177.44 18.28 176.74 18.28H170.44C169.75 18.28 168.88 18.75 168.51 19.34Z" fill="black"/>
<path d="M295.07 17.87C286.77 17.87 280.02 24.62 280.02 32.92C280.02 41.22 286.77 47.97 295.07 47.97C303.37 47.97 310.12 41.22 310.12 32.92C310.12 24.62 303.37 17.87 295.07 17.87ZM295.07 40.49C290.9 40.49 287.51 37.1 287.51 32.93C287.51 28.76 290.9 25.37 295.07 25.37C299.24 25.37 302.63 28.76 302.63 32.93C302.63 37.1 299.24 40.49 295.07 40.49Z" fill="black"/>
<path d="M260.17 25.95C262.48 25.95 264.64 27.1 265.94 29.02C266.13 29.31 266.52 29.4 266.81 29.23L272.72 25.82C272.87 25.74 272.97 25.59 273.01 25.43C273.05 25.27 273.02 25.1 272.94 24.96C270.17 20.52 265.39 17.87 260.17 17.87C251.87 17.87 245.12 24.62 245.12 32.92C245.12 41.22 251.87 47.97 260.17 47.97C265.39 47.97 270.17 45.32 272.94 40.88C273.03 40.74 273.05 40.57 273.01 40.41C272.97 40.25 272.86 40.11 272.72 40.02L266.81 36.61C266.52 36.44 266.14 36.53 265.94 36.82C264.64 38.74 262.48 39.89 260.17 39.89C256.32 39.89 253.2 36.76 253.2 32.92C253.2 29.08 256.33 25.95 260.17 25.95Z" fill="black"/>
<path d="M213.69 34.64L208.05 19.46C207.81 18.81 207.05 18.28 206.36 18.28H200.45C199.76 18.28 199.39 18.81 199.63 19.46L209.52 46.11C209.76 46.76 210.52 47.29 211.21 47.29H217.03C217.72 47.29 218.48 46.76 218.72 46.11L228.61 19.46C228.85 18.81 228.48 18.28 227.79 18.28H221.88C221.19 18.28 220.43 18.81 220.19 19.46L214.55 34.64C214.31 35.29 213.92 35.29 213.68 34.64H213.69Z" fill="black"/>
<path d="M328.27 18.44H328.22C328.22 18.44 328.17 19.03 328.17 19.72V25.38C328.17 26.07 328.21 26.61 328.27 26.57L328.37 26.51C329.57 25.76 330.96 25.36 332.37 25.36C336.54 25.36 339.93 28.75 339.93 32.92C339.93 37.09 336.54 40.48 332.37 40.48C328.2 40.48 324.81 37.09 324.81 32.92V7.03002C324.81 6.34002 324.25 5.77002 323.55 5.77002H318.57C317.88 5.77002 317.31 6.33002 317.31 7.03002V32.93C317.31 41.23 324.06 47.98 332.36 47.98C340.66 47.98 347.41 41.23 347.41 32.93C347.41 24.63 340.66 17.88 332.36 17.88C330.97 17.88 329.59 18.07 328.26 18.45L328.27 18.44Z" fill="black"/>
<path d="M355.03 32.93C355.03 41.23 361.78 47.98 370.08 47.98C371.47 47.98 372.85 47.79 374.18 47.41H374.23C374.23 47.41 374.28 46.82 374.28 46.13V40.47C374.28 39.78 374.24 39.24 374.18 39.28L374.08 39.34C372.88 40.09 371.49 40.49 370.08 40.49C365.91 40.49 362.52 37.1 362.52 32.93C362.52 28.76 365.91 25.37 370.08 25.37C374.25 25.37 377.64 28.76 377.64 32.93V46.73C377.64 47.42 378.2 47.99 378.9 47.99H383.88C384.57 47.99 385.14 47.43 385.14 46.73V32.93C385.14 24.63 378.39 17.88 370.09 17.88C361.79 17.88 355.04 24.63 355.04 32.93H355.03Z" fill="black"/>
<path d="M123.99 22.31C121.02 19.3 117.06 17.71 112.83 17.83C108.89 17.94 105.2 19.6 102.45 22.49C99.72 25.37 98.21 29.14 98.21 33.11V55.98C98.21 56.67 98.77 57.24 99.47 57.24H104.45C105.14 57.24 105.71 56.68 105.71 55.98V32.66C105.77 30.58 106.65 28.67 108.19 27.27C109.73 25.87 111.72 25.19 113.81 25.33C117.56 25.59 120.57 28.62 120.81 32.38C120.94 34.49 120.22 36.5 118.78 38.04C117.35 39.56 115.34 40.43 113.27 40.43C112.64 40.43 112 40.31 111.4 40.13C111.1 40.04 110.81 39.94 110.52 39.83C110.28 39.74 110.04 39.64 109.8 39.52C109.38 39.33 109.08 39.52 109.08 39.88V46.06C109.08 46.75 109.1 47.32 109.13 47.33H109.18C110.78 47.8 112.44 47.98 114.12 47.89C121.74 47.47 127.98 41.17 128.31 33.54C128.49 29.31 126.96 25.32 124 22.31H123.99Z" fill="black"/>
</g>
<defs>
<clipPath id="clip0_1_582">
<rect width="424.24" height="63" fill="white"/>
</clipPath>
</defs>
</svg>
