<svg xmlns="http://www.w3.org/2000/svg" viewBox="0 0 955.67 116.68"><g id="レイヤー_2" data-name="レイヤー 2"><g id="レイヤー_1-2" data-name="レイヤー 1"><path d="M695.28,83.52h-9.1a2.6,2.6,0,0,1-2.6-2.61V38.31a2.59,2.59,0,0,1,2.6-2.6h9.1a2.6,2.6,0,0,1,2.6,2.6v42.6A2.61,2.61,0,0,1,695.28,83.52Z"/><path d="M714,35.71h8.15a2.57,2.57,0,0,1,2.6,2.54,18,18,0,0,0,.09,2.54s.67-1,1.6-2.11c1.88-2.2,5.17-4.61,11.5-4.61,4.55,0,9.64,1.89,12.22,4.13s5.51,6,5.51,15.42V80.91a2.6,2.6,0,0,1-2.6,2.61H744a2.6,2.6,0,0,1-2.6-2.61V57.42c0-3.36,0-9.91-7.5-9.91-8.18,0-8.18,7.06-8.18,10V80.91a2.6,2.6,0,0,1-2.6,2.61H714a2.61,2.61,0,0,1-2.6-2.61V38.31A2.6,2.6,0,0,1,714,35.71Z"/><path d="M905.55,70.87a27,27,0,0,1-8.6,9.89,23.25,23.25,0,0,1-13.61,4.31A25.37,25.37,0,0,1,858,59.74c0-13.35,10.51-25.67,25.07-25.67s25.24,11.54,25.24,26.1a19,19,0,0,1-.08,1.9c-.1,1-1.43,1.89-2.86,1.89H874.74a1.84,1.84,0,0,0-1.92,2.51c1.69,4.15,5.8,6.54,10.52,6.54a9.64,9.64,0,0,0,6.95-2.57,7.51,7.51,0,0,1,4.35-1.91h9.44C905.52,68.53,906.23,69.6,905.55,70.87Zm-12.42-19c-1.39-2.71-4.38-5.74-10-5.74s-8.58,3-10,5.74c-.66,1.28.28,2.44,1.71,2.44h16.51C892.86,54.31,893.79,53.15,893.13,51.87Z"/><path d="M939.3,46.75c-.61-.69-1.7-1.22-3.62-1.22-3,0-4,1.89-4,3.18,0,2.59,3.53,4,7.32,5.17,8.1,2.24,16.72,4.65,16.72,15,0,10.08-8.88,16.28-19.47,16.28-6.72,0-16.63-2.82-19.05-13.28a2.11,2.11,0,0,1,2.18-2.57h9c1.44,0,2.67,1.25,3.52,2.41a5.62,5.62,0,0,0,4.51,2c2.41,0,5-1.38,5-3.71,0-3.7-3.52-4.13-12.66-7.66-6.2-2-11.37-6-11.37-12.5,0-9.47,8.62-15.76,18.52-15.76,5.84,0,15.6,2.15,17.94,12.51a2.11,2.11,0,0,1-2.19,2.57h-8.84C941.32,49.15,940.27,47.81,939.3,46.75Z"/><path d="M683.41,28.85V29c0,.85.28,1.91,1.11,2.1a1.54,1.54,0,0,0,1.31-.43,7.76,7.76,0,0,1,2.54-1.93,11.62,11.62,0,0,1,3.37-.46,14.86,14.86,0,0,0,11.53-6.06,14.65,14.65,0,0,0,2.26-11.86,3.59,3.59,0,0,0-.63-1.44,1.47,1.47,0,0,0-1.4-.57c-.66.15-1,.85-1.36,1.45a11.24,11.24,0,0,1-6.65,5.28c-2.18.62-4.55.58-6.58,1.57C684.53,18.75,683.28,24.41,683.41,28.85Z"/><path d="M846.49,83.52h-9.1a2.6,2.6,0,0,1-2.6-2.61V38.31a2.59,2.59,0,0,1,2.6-2.6h9.1a2.6,2.6,0,0,1,2.6,2.6v42.6A2.61,2.61,0,0,1,846.49,83.52Z"/><path d="M834.62,28.85V29c0,.85.28,1.91,1.11,2.1a1.55,1.55,0,0,0,1.31-.43,7.76,7.76,0,0,1,2.54-1.93,11.57,11.57,0,0,1,3.37-.46,14.86,14.86,0,0,0,11.53-6.06,14.65,14.65,0,0,0,2.26-11.86,3.73,3.73,0,0,0-.63-1.44,1.47,1.47,0,0,0-1.4-.57c-.67.15-1,.85-1.36,1.45a11.24,11.24,0,0,1-6.65,5.28c-2.18.62-4.55.58-6.58,1.57C835.74,18.75,834.49,24.41,834.62,28.85Z"/><path d="M824.63,30.62a1.08,1.08,0,0,0-1,.32,5,5,0,0,1-3,1.53,4.43,4.43,0,0,1-.62,0,2.31,2.31,0,0,1-.46,0,2.56,2.56,0,0,1,.46-5.07,7.71,7.71,0,0,0,7.69-7.69,7.94,7.94,0,0,0-.27-2,1.06,1.06,0,0,0-.57-.72,1.09,1.09,0,0,0-1.24.24,11.46,11.46,0,0,1-8.52,2.65l-.82-.1c-.22,0-.6,0-.91,0h-9.62a2.61,2.61,0,0,0-2.6,2.61V33c0,2.52-1.76,3.5-4.14,2.64a25.42,25.42,0,1,0,4.21,45.86,2.6,2.6,0,0,0,2.53,2h9.1a2.6,2.6,0,0,0,2.6-2.61V42.25a3.62,3.62,0,0,1,2.17-3,10.24,10.24,0,0,0,5.81-7.36A1,1,0,0,0,824.63,30.62ZM807.22,52.37A8.45,8.45,0,0,1,806.14,55a11.56,11.56,0,0,1-.78,1.06,5.25,5.25,0,0,0-.88,1.11,2.16,2.16,0,0,0,.21,1.8,6.07,6.07,0,0,1,.45,1.77,8.44,8.44,0,0,1-.52,3.62,14.89,14.89,0,0,1-1.22,2.7,15,15,0,0,1-3.82,4.36A14.9,14.9,0,0,1,797.1,73a14.71,14.71,0,0,1-5.73,1.55c-.33,0-.67,0-1,0a15,15,0,0,1-4.44-29.39,15.22,15.22,0,0,1,4.44-.67c.48,0,1.06,0,1.39.07l.93.12.55,0a7,7,0,0,0,4.44-1.6,5.76,5.76,0,0,1,3.84-1.48,5.74,5.74,0,0,1,5.57,4.4,11.87,11.87,0,0,1,.41,3.15A14.81,14.81,0,0,1,807.22,52.37Z"/><path d="M799.72,60.23a1.1,1.1,0,0,0-1,.33h0a5,5,0,0,1-3,1.54,4.65,4.65,0,0,1-.63,0,2.42,2.42,0,0,1-.47-.05,2.59,2.59,0,0,1,.47-5.13,7.72,7.72,0,0,0,4.76-1.63l0,0a7.77,7.77,0,0,0,3-6.1,7.61,7.61,0,0,0-.27-2h0a1.06,1.06,0,0,0-1.82-.49,11.61,11.61,0,0,1-8.61,2.68l-.83-.11c-.22,0-.61,0-.92,0a10.35,10.35,0,1,0,10.16,12.33A1.06,1.06,0,0,0,799.72,60.23Z"/><path d="M215.23,30.36h-9.76a2.31,2.31,0,0,1-2.31-2.31v-6.3a2.3,2.3,0,0,1,2.31-2.3h9.76a2.3,2.3,0,0,1,2.3,2.3v6.3A2.31,2.31,0,0,1,215.23,30.36Zm0,53.16h-9.76a2.31,2.31,0,0,1-2.31-2.31V37.77a2.31,2.31,0,0,1,2.31-2.31h9.76a2.31,2.31,0,0,1,2.3,2.31V81.21A2.31,2.31,0,0,1,215.23,83.52Z"/><path d="M274.62,37.33l-13.48,18.6a3.39,3.39,0,0,0,0,3.74l15.91,22c.74,1,.32,1.87-1,1.87h-13a4.73,4.73,0,0,1-3.56-1.94l-7.11-10.25a1.38,1.38,0,0,0-2.51,0L242.7,81.59a4.79,4.79,0,0,1-3.58,1.93h-12.7c-1.27,0-1.71-.85-1-1.88l15.6-22a3.44,3.44,0,0,0,0-3.75l-13.49-18.6c-.74-1-.32-1.87,1-1.87h12.61a4.58,4.58,0,0,1,3.52,2l5.37,8a1.3,1.3,0,0,0,2.41,0l5.31-7.94a4.57,4.57,0,0,1,3.5-2h12.45C274.94,35.46,275.37,36.3,274.62,37.33Z"/><path d="M297.14,83.52h-9.76a2.31,2.31,0,0,1-2.31-2.31V37.77a2.31,2.31,0,0,1,2.31-2.31h9.76a2.31,2.31,0,0,1,2.3,2.31V81.21A2.31,2.31,0,0,1,297.14,83.52Z"/><path d="M334.8,83.52h-9.16a3.52,3.52,0,0,1-3.08-2.17L306.89,37.64a1.52,1.52,0,0,1,1.53-2.18h10.27a3.32,3.32,0,0,1,3,2.21l7.82,25.55a17.22,17.22,0,0,0,.77,2.2,20.51,20.51,0,0,0,.76-2.2l7.82-25.55a3.32,3.32,0,0,1,3-2.21h10.27a1.52,1.52,0,0,1,1.53,2.17L337.89,81.35A3.54,3.54,0,0,1,334.8,83.52Z"/><path d="M423.66,67.71a25.89,25.89,0,0,1-50.33-8.42,25.3,25.3,0,0,1,25.45-25.62c11.83,0,21.57,7.24,24.87,17.7a1.91,1.91,0,0,1-2,2.53h-9.34a5.39,5.39,0,0,1-3.93-2.26,10.48,10.48,0,0,0-9.11-4.51c-6.86-.35-11.47,5.3-11.47,12.25s4.61,12.24,11.47,12.24a10.77,10.77,0,0,0,9-4.22,5.79,5.79,0,0,1,4-2.21h9.43A1.84,1.84,0,0,1,423.66,67.71Z"/><path d="M498,35.32h8.21a2.59,2.59,0,0,1,2.62,2.56,18.36,18.36,0,0,0,.09,2.57c.05,0,.64-1.06,1.58-2.16,1.84-2.13,5.28-4.62,11.79-4.62A14.81,14.81,0,0,1,534.84,40a1.66,1.66,0,0,0,2.91.1,17.21,17.21,0,0,1,13.76-6.47c3.38,0,8.76.78,12.67,4.87,4.51,4.77,5.21,8,5.21,18.67V80.89a2.62,2.62,0,0,1-2.62,2.63H557.6A2.62,2.62,0,0,1,555,80.89v-23c0-3.91,0-10.68-7.38-10.68-8,0-8,7.29-8,10V80.89A2.63,2.63,0,0,1,537,83.52h-9.17a2.62,2.62,0,0,1-2.62-2.63V57.29c0-2.6,0-10.07-7.21-10.07-8.16,0-8.16,7.81-8.16,10.68v23a2.62,2.62,0,0,1-2.62,2.63H498a2.62,2.62,0,0,1-2.62-2.63V37.94A2.62,2.62,0,0,1,498,35.32Z"/><path d="M594,83.52h-9.17a2.62,2.62,0,0,1-2.62-2.63V37.94a2.62,2.62,0,0,1,2.62-2.62H594a2.62,2.62,0,0,1,2.62,2.62v43A2.62,2.62,0,0,1,594,83.52Z"/><path d="M657.64,67.71a25.89,25.89,0,0,1-50.33-8.42,25.3,25.3,0,0,1,25.45-25.62c11.83,0,21.57,7.24,24.87,17.7a1.91,1.91,0,0,1-2,2.53h-9.34a5.41,5.41,0,0,1-3.93-2.26,10.48,10.48,0,0,0-9.11-4.51c-6.86-.35-11.46,5.3-11.46,12.25s4.6,12.24,11.46,12.24a10.77,10.77,0,0,0,9-4.22,5.79,5.79,0,0,1,4-2.21h9.44A1.84,1.84,0,0,1,657.64,67.71Z"/><path d="M458.65,33.76c-17.55,0-26,13.81-26,25.62S441.1,85,458.65,85s26-13.81,26-25.61S476.18,33.76,458.65,33.76Zm0,38.73a13.12,13.12,0,1,1,13.11-13.11A13.11,13.11,0,0,1,458.65,72.49Z"/><path d="M157.5,37a2.33,2.33,0,0,0-2.18-1.56h-9.76a2.31,2.31,0,0,0-2.3,2.31V94.93a2.31,2.31,0,0,0,2.3,2.31h9.76a2.31,2.31,0,0,0,2.31-2.31V86.42c0-2.55,1.8-3.57,4.23-2.78A28.27,28.27,0,0,0,170.75,85c17.53,0,26-13.81,26-25.61s-8.43-25.62-26-25.62A26.72,26.72,0,0,0,157.5,37Zm13.25,35.47a13.12,13.12,0,1,1,13.11-13.11A13.11,13.11,0,0,1,170.75,72.49Z"/><rect x="285.07" y="19.45" width="14.37" height="10.91" rx="2.31"/><rect x="582.23" y="19.45" width="14.37" height="10.91" rx="2.31"/><path d="M43.87,14.27A44.27,44.27,0,1,0,100.41,65h0a4.52,4.52,0,0,0-3.48-5.49,4.65,4.65,0,0,0-4.25,1.39h0a21.51,21.51,0,0,1-13,6.59,17.6,17.6,0,0,1-2.67.12,11.24,11.24,0,0,1-2-.19,11.06,11.06,0,0,1,2-21.94,33.09,33.09,0,0,0,20.36-7l.19-.16A33.26,33.26,0,0,0,109.05,3.56h0A4.47,4.47,0,0,0,106.58.45a4.58,4.58,0,0,0-5.32,1A49.68,49.68,0,0,1,64.42,12.94s-2.6-.36-3.54-.45-2.61-.19-3.94-.19a44.08,44.08,0,0,0-13.07,2"/><path d="M44.19,115.1a6.15,6.15,0,0,1-3.82,1.58H2.24A2.23,2.23,0,0,1,0,114.45V66.81a2.24,2.24,0,0,1,2.24-2.24H4.41a2.59,2.59,0,0,1,2.45,2.22,47.6,47.6,0,0,0,41.36,40.09,1.86,1.86,0,0,1,1,.52,1.88,1.88,0,0,1,0,2.66Z"/></g></g></svg>