<svg xmlns="http://www.w3.org/2000/svg" viewBox="0 0 604.91 178.19"><g id="レイヤー_2" data-name="レイヤー 2"><g id="レイヤー_1-2" data-name="レイヤー 1"><path d="M222.92,175.79H209.58a3.82,3.82,0,0,1-3.82-3.82v-62.5a3.82,3.82,0,0,1,3.82-3.82h13.34a3.82,3.82,0,0,1,3.82,3.82V172A3.82,3.82,0,0,1,222.92,175.79Z"/><path d="M250.39,105.65h11.95a3.78,3.78,0,0,1,3.82,3.73,27.21,27.21,0,0,0,.13,3.73c.07,0,1-1.49,2.35-3.1,2.76-3.22,7.59-6.76,16.86-6.76,6.69,0,14.15,2.78,17.94,6.07s8.09,8.84,8.09,22.62v40a3.82,3.82,0,0,1-3.82,3.82H294.37a3.81,3.81,0,0,1-3.81-3.82V137.5c0-4.93,0-14.53-11-14.53-12,0-12,10.36-12,14.65V172a3.82,3.82,0,0,1-3.82,3.82H250.39a3.82,3.82,0,0,1-3.81-3.82v-62.5A3.82,3.82,0,0,1,250.39,105.65Z"/><path d="M531.4,157.24a39.68,39.68,0,0,1-12.62,14.5,34.05,34.05,0,0,1-20,6.32,37.21,37.21,0,0,1-37.16-37.15c0-19.59,15.42-37.66,36.78-37.66s37,16.94,37,38.29c0,1.17-.05,2.05-.12,2.79-.14,1.54-2.1,2.77-4.2,2.77H486.2c-2.11,0-3.61,1.72-2.82,3.67,2.48,6.1,8.51,9.6,15.43,9.6A14.2,14.2,0,0,0,509,156.61a11,11,0,0,1,6.39-2.81h13.84C531.34,153.8,532.38,155.38,531.4,157.24Zm-18.23-27.87c-2-4-6.42-8.43-14.61-8.43s-12.58,4.45-14.63,8.43c-1,1.88.41,3.58,2.52,3.58h24.21C512.77,133,514.14,131.25,513.17,129.37Z"/><path d="M580.91,121.85c-.91-1-2.5-1.79-5.31-1.79-4.43,0-6,2.78-6,4.68,0,3.79,5.19,5.93,10.74,7.58,11.89,3.28,24.52,6.82,24.52,22,0,14.79-13,23.89-28.56,23.89-9.85,0-24.39-4.14-27.94-19.49a3.08,3.08,0,0,1,3.2-3.76h13.21c2.11,0,3.92,1.83,5.17,3.53,2.13,2.91,5.94,2.91,6.62,2.91,3.53,0,7.32-2,7.32-5.43,0-5.44-5.17-6.07-18.57-11.25-9.1-2.9-16.68-8.85-16.68-18.32,0-13.9,12.63-23.13,27.16-23.13,8.57,0,22.89,3.15,26.33,18.35a3.11,3.11,0,0,1-3.22,3.77H586C583.87,125.37,582.32,123.41,580.91,121.85Z"/><path d="M205.52,95.6v.17c0,1.25.41,2.8,1.63,3.08a2.24,2.24,0,0,0,1.91-.63c1.28-1.09,2.05-2.25,3.73-2.83a17.55,17.55,0,0,1,5-.68,21.83,21.83,0,0,0,16.91-8.88A21.46,21.46,0,0,0,238,68.43a5.38,5.38,0,0,0-.92-2.12,2.13,2.13,0,0,0-2-.83c-1,.22-1.51,1.25-2,2.13a16.48,16.48,0,0,1-9.76,7.74c-3.19.91-6.67.85-9.65,2.3C207.16,80.78,205.33,89.08,205.52,95.6Z"/><path d="M444.74,175.79H431.4a3.82,3.82,0,0,1-3.82-3.82v-62.5a3.82,3.82,0,0,1,3.82-3.82h13.34a3.82,3.82,0,0,1,3.82,3.82V172A3.82,3.82,0,0,1,444.74,175.79Z"/><path d="M427.34,95.6v.17c0,1.25.41,2.8,1.63,3.08a2.24,2.24,0,0,0,1.91-.63c1.28-1.09,2.06-2.25,3.73-2.83a17.55,17.55,0,0,1,4.95-.68,21.83,21.83,0,0,0,16.91-8.88,21.46,21.46,0,0,0,3.31-17.4,5.38,5.38,0,0,0-.92-2.12,2.13,2.13,0,0,0-2.05-.83c-1,.22-1.51,1.25-2,2.13a16.45,16.45,0,0,1-9.76,7.74c-3.19.91-6.67.85-9.65,2.3C429,80.78,427.15,89.08,427.34,95.6Z"/><path d="M412.69,98.19a1.6,1.6,0,0,0-1.45.48,7.31,7.31,0,0,1-4.41,2.24,7,7,0,0,1-.9,0,3.84,3.84,0,0,1-.69-.07,3.76,3.76,0,0,1,.69-7.45A11.26,11.26,0,0,0,416.8,79.2a1.52,1.52,0,0,0-.83-1.06,1.55,1.55,0,0,0-1.81.35,16.89,16.89,0,0,1-12.51,3.89l-1.2-.15a12.79,12.79,0,0,0-1.34-.07H385A3.82,3.82,0,0,0,381.19,86v15.71c0,3.71-2.59,5.14-6.08,3.88a37.28,37.28,0,1,0,6.19,67.27,3.81,3.81,0,0,0,3.71,2.95h13.34a3.82,3.82,0,0,0,3.82-3.82V115.25a5.3,5.3,0,0,1,3.18-4.4,15,15,0,0,0,8.52-10.79A1.54,1.54,0,0,0,412.69,98.19Zm-25.55,31.9a11.87,11.87,0,0,1-1.59,3.88,14.27,14.27,0,0,1-1.13,1.55,7.47,7.47,0,0,0-1.29,1.63,3.12,3.12,0,0,0,.31,2.64,9.72,9.72,0,0,1,.66,2.61,12.31,12.31,0,0,1-.78,5.3,21,21,0,0,1-1.78,4,21.4,21.4,0,0,1-2.49,3.48,22.68,22.68,0,0,1-3.12,2.92,21.7,21.7,0,0,1-3.63,2.28,22.52,22.52,0,0,1-4.05,1.54,21.48,21.48,0,0,1-4.36.73c-.49,0-1,0-1.47,0a22,22,0,1,1,0-44.09c.71,0,1.57.05,2.05.1l1.36.18c.2,0,.51,0,.81,0a10.2,10.2,0,0,0,6.5-2.36,8.4,8.4,0,0,1,9.19-1.38,8.39,8.39,0,0,1,4.63,5.67,18,18,0,0,1,.6,4.62A21.44,21.44,0,0,1,387.14,130.09Z"/><path d="M376.14,141.63a1.58,1.58,0,0,0-1.46.48h0a7.35,7.35,0,0,1-4.45,2.26,5.74,5.74,0,0,1-.91,0,4,4,0,0,1-.7-.06,3.8,3.8,0,0,1,.7-7.53,11.33,11.33,0,0,0,7-2.39l.06-.05a11.45,11.45,0,0,0,3.95-11.94h0a1.57,1.57,0,0,0-2.68-.72A17,17,0,0,1,365,125.65s-.89-.12-1.22-.15a12.84,12.84,0,0,0-1.35-.07,15.19,15.19,0,1,0,14.91,18.09A1.56,1.56,0,0,0,376.14,141.63Z"/><path d="M66.33,21.57a66.94,66.94,0,1,0,85.48,76.74h0A6.83,6.83,0,0,0,146.55,90a7.09,7.09,0,0,0-6.43,2.1l0,0a32.47,32.47,0,0,1-19.63,10,26.78,26.78,0,0,1-4,.19,17.07,17.07,0,0,1-3.06-.29,16.73,16.73,0,0,1,3.06-33.18,49.94,49.94,0,0,0,30.77-10.55l.29-.23A50.17,50.17,0,0,0,164.87,5.39h0A6.73,6.73,0,0,0,161.15.68a7,7,0,0,0-8.06,1.54A75.08,75.08,0,0,1,97.4,19.57S93.46,19,92,18.88s-3.94-.28-6-.28a66.89,66.89,0,0,0-19.76,3"/><path d="M66.81,174A9.36,9.36,0,0,1,61,176.42H3.38A3.38,3.38,0,0,1,0,173V101a3.38,3.38,0,0,1,3.38-3.38H6.67a3.91,3.91,0,0,1,3.7,3.35,72,72,0,0,0,62.54,60.61,2.84,2.84,0,0,1,1.53,4.81Z"/><path d="M260.35,8.49h-7.6A1.8,1.8,0,0,1,251,6.7V1.8a1.8,1.8,0,0,1,1.8-1.8h7.6a1.79,1.79,0,0,1,1.79,1.8V6.7A1.79,1.79,0,0,1,260.35,8.49Zm0,41.39h-7.6a1.8,1.8,0,0,1-1.8-1.79V14.27a1.81,1.81,0,0,1,1.8-1.8h7.6a1.8,1.8,0,0,1,1.79,1.8V48.09A1.79,1.79,0,0,1,260.35,49.88Z"/><path d="M306.59,13.92l-10.5,14.49a2.65,2.65,0,0,0,0,2.91l12.39,17.11c.58.8.25,1.45-.74,1.45h-10.1a3.64,3.64,0,0,1-2.76-1.5l-5.54-8a1.08,1.08,0,0,0-2,0l-5.65,8a3.68,3.68,0,0,1-2.78,1.5h-9.89c-1,0-1.33-.65-.75-1.46l12.14-17.09a2.67,2.67,0,0,0,0-2.92l-10.5-14.49c-.58-.8-.25-1.45.74-1.45h9.82A3.57,3.57,0,0,1,283.24,14l4.18,6.19a1,1,0,0,0,1.88,0L293.43,14a3.57,3.57,0,0,1,2.73-1.53h9.69C306.84,12.47,307.17,13.12,306.59,13.92Z"/><path d="M324.12,49.88h-7.6a1.79,1.79,0,0,1-1.79-1.79V14.27a1.8,1.8,0,0,1,1.79-1.8h7.6a1.81,1.81,0,0,1,1.8,1.8V48.09A1.8,1.8,0,0,1,324.12,49.88Z"/><path d="M353.45,49.88h-7.13a2.72,2.72,0,0,1-2.4-1.69l-12.21-34a1.18,1.18,0,0,1,1.19-1.69h8a2.58,2.58,0,0,1,2.32,1.72l6.09,19.89a12.07,12.07,0,0,0,.6,1.72,14.8,14.8,0,0,0,.59-1.72l6.09-19.89a2.58,2.58,0,0,1,2.33-1.72h8a1.18,1.18,0,0,1,1.19,1.69l-12.27,34A2.73,2.73,0,0,1,353.45,49.88Z"/><path d="M422.63,37.58A20.15,20.15,0,0,1,383.45,31a19.7,19.7,0,0,1,19.81-19.95,19.92,19.92,0,0,1,19.36,13.78,1.49,1.49,0,0,1-1.53,2h-7.27a4.21,4.21,0,0,1-3.06-1.77,8.18,8.18,0,0,0-7.1-3.51c-5.34-.27-8.92,4.13-8.92,9.54s3.58,9.53,8.92,9.53a8.37,8.37,0,0,0,7-3.29,4.48,4.48,0,0,1,3.14-1.71h7.35A1.43,1.43,0,0,1,422.63,37.58Z"/><path d="M480.54,12.36h6.39a2,2,0,0,1,2,2,14,14,0,0,0,.07,2s.5-.82,1.23-1.68c1.43-1.66,4.11-3.6,9.18-3.6a11.54,11.54,0,0,1,9.75,5,1.29,1.29,0,0,0,2.26.07,13.41,13.41,0,0,1,10.71-5c2.64,0,6.83.61,9.88,3.79,3.51,3.72,4.05,6.22,4.05,14.54V47.84a2,2,0,0,1-2,2h-7.14a2,2,0,0,1-2-2V29.94c0-3,0-8.32-5.75-8.32-6.22,0-6.22,5.68-6.22,7.78V47.84a2,2,0,0,1-2,2h-7.14a2,2,0,0,1-2.05-2V29.46c0-2,0-7.84-5.61-7.84-6.35,0-6.35,6.09-6.35,8.32v17.9a2,2,0,0,1-2,2h-7.14a2,2,0,0,1-2-2V14.4A2,2,0,0,1,480.54,12.36Z"/><path d="M555.26,49.88h-7.14a2,2,0,0,1-2-2V14.4a2,2,0,0,1,2-2h7.14a2,2,0,0,1,2,2V47.84A2,2,0,0,1,555.26,49.88Z"/><path d="M604.81,37.58A20.15,20.15,0,0,1,565.63,31a19.7,19.7,0,0,1,19.81-19.95A19.92,19.92,0,0,1,604.8,24.85a1.49,1.49,0,0,1-1.53,2H596a4.21,4.21,0,0,1-3.06-1.77,8.19,8.19,0,0,0-7.1-3.51c-5.34-.27-8.92,4.13-8.92,9.54s3.58,9.53,8.92,9.53a8.37,8.37,0,0,0,7-3.29A4.48,4.48,0,0,1,596,35.62h7.34A1.43,1.43,0,0,1,604.81,37.58Z"/><path d="M449.87,11.14c-13.65,0-20.21,10.75-20.21,20S436.22,51,449.87,51s20.22-10.75,20.22-19.94S463.53,11.14,449.87,11.14Zm0,30.16a10.21,10.21,0,1,1,10.22-10.21A10.21,10.21,0,0,1,449.87,41.3Z"/><path d="M215.4,13.68a1.81,1.81,0,0,0-1.69-1.21h-7.6a1.81,1.81,0,0,0-1.8,1.8v44.5a1.81,1.81,0,0,0,1.8,1.8h7.6a1.8,1.8,0,0,0,1.79-1.8V52.15c0-2,1.41-2.78,3.29-2.17A22,22,0,0,0,225.71,51c13.66,0,20.22-10.75,20.22-19.94s-6.56-19.95-20.22-19.95A20.8,20.8,0,0,0,215.4,13.68ZM225.72,41.3a10.21,10.21,0,1,1,10.21-10.21A10.22,10.22,0,0,1,225.72,41.3Z"/><rect x="314.73" width="11.19" height="8.49" rx="1.8"/><rect x="546.1" width="11.19" height="8.49" rx="1.8"/></g></g></svg>