<svg xmlns="http://www.w3.org/2000/svg" width="512" height="512" viewBox="0 0 512 512">
  <path fill="#00B8CD" fill-rule="evenodd" d="M447.322862,176.944173 C446.595307,176.944173 446.165595,177.399708 445.892762,177.761858 L431.54629,198.399841 L417.197544,177.761858 C416.94972,177.399708 416.494999,176.944173 415.767444,176.944173 L406.627536,176.944173 C405.192888,176.944173 404.490343,178.379107 405.192888,179.561218 L425.632633,209.537656 L425.632633,238.09966 C425.632633,238.987952 426.339725,239.785137 427.33784,239.785137 L435.568304,239.785137 C436.480021,239.785137 437.273511,238.987952 437.273511,238.09966 L437.273511,209.446549 L457.988362,179.561218 C458.690907,178.379107 457.988362,176.944173 456.555988,176.944173 L447.322862,176.944173 Z M433.342441,342.259867 L432.978663,336.588464 L432.56714,330.459249 L416.560933,330.459249 L416.17442,336.449526 L415.515073,346.177462 L433.342441,342.259867 Z M386.913073,214.386819 C394.713825,211.24591 400.168213,204.504002 400.168213,196.25883 C400.168213,185.576549 391.394356,176.944173 380.637912,176.944173 L355.016613,176.944173 C354.013951,176.944173 353.311406,177.761858 353.311406,178.652427 L353.311406,238.09966 C353.311406,238.987952 354.013951,239.785137 355.016613,239.785137 L363.247077,239.785137 C364.154247,239.785137 364.952284,238.987952 364.952284,238.09966 L364.952284,215.209059 L374.910691,215.209059 L386.824402,238.987952 C387.004017,239.350102 387.438276,239.785137 388.256775,239.785137 L397.669516,239.785137 C399.190561,239.785137 399.806709,238.372981 399.190561,237.188591 L386.913073,214.386819 Z M310.838117,176.053604 C292.922079,176.053604 278.668824,190.519097 278.668824,208.46715 C278.668824,226.415204 292.922079,240.696206 310.838117,240.696206 C328.756429,240.696206 343.102902,226.415204 343.102902,208.46715 C343.102902,190.519097 328.756429,176.053604 310.838117,176.053604 Z M273.757829,178.652427 C273.757829,177.761858 273.028,176.944173 272.052622,176.944173 L232.876066,176.944173 C231.898414,176.944173 231.17086,177.761858 231.17086,178.652427 L231.17086,186.032084 C231.17086,186.920376 231.898414,187.717561 232.876066,187.717561 L246.585928,187.717561 L246.585928,238.09966 C246.585928,238.987952 247.406701,239.785137 248.291135,239.785137 L256.63528,239.785137 C257.524261,239.785137 258.340486,238.987952 258.340486,238.09966 L258.340486,187.717561 L272.052622,187.717561 C273.028,187.717561 273.757829,186.920376 273.757829,186.032084 L273.757829,178.652427 Z M217.576952,223.818658 C217.029012,223.272017 216.053634,223.18091 215.323805,223.818658 C211.574624,226.870738 207.002396,228.918365 201.613943,228.918365 C190.157228,228.918365 181.54025,219.420474 181.54025,208.19383 C181.54025,196.873801 190.066283,187.284803 201.525272,187.284803 C206.549948,187.284803 211.574624,189.241323 215.323805,192.566724 C216.053634,193.297857 216.938067,193.297857 217.576952,192.566724 L223.033613,186.920376 C223.758894,186.191521 223.758894,185.121015 222.942669,184.39216 C216.847123,178.925748 210.321865,176.053604 201.252439,176.053604 C183.336401,176.053604 168.89671,190.519097 168.89671,208.46715 C168.89671,226.415204 183.336401,240.696206 201.252439,240.696206 C209.232807,240.696206 216.938067,237.917446 223.033613,231.9955 C223.66795,231.357752 223.849839,230.196139 223.124557,229.558391 L217.576952,223.818658 Z M138.45536,177.03528 C138.182527,176.511416 137.81875,176.053604 136.932042,176.053604 L136.022599,176.053604 C135.226835,176.053604 134.772114,176.511416 134.499281,177.03528 L106.647571,237.459634 C106.099631,238.623524 106.82946,239.785137 108.170889,239.785137 L115.967094,239.785137 C117.401741,239.785137 118.197504,238.896845 118.561282,238.008553 L122.949347,228.305671 L149.755197,228.305671 L154.140988,238.008553 C154.757136,239.258995 155.393747,239.785137 156.735176,239.785137 L164.533655,239.785137 C165.87281,239.785137 166.579903,238.623524 166.054699,237.459634 L138.45536,177.03528 Z M105.988224,178.652427 C105.988224,177.761858 105.283406,176.944173 104.283018,176.944173 L67.8143301,176.944173 C66.8366783,176.944173 66.1091234,177.761858 66.1091234,178.652427 L66.1091234,238.09966 C66.1091234,238.987952 66.8366783,239.785137 67.8143301,239.785137 L76.065257,239.785137 C76.9542381,239.785137 77.7704637,238.987952 77.7704637,238.09966 L77.7704637,215.368496 L99.8949524,215.368496 C100.802122,215.368496 101.600159,214.571311 101.600159,213.660242 L101.600159,206.303362 C101.600159,205.41507 100.802122,204.595109 99.8949524,204.595109 L77.7704637,204.595109 L77.7704637,187.717561 L104.283018,187.717561 C105.283406,187.717561 105.988224,186.920376 105.988224,186.032084 L105.988224,178.652427 Z M488,272.745325 C488,286.957997 476.402321,298.571845 462.240011,298.571845 L441.479687,298.571845 C441.231864,301.740086 440.411091,304.926549 438.910509,307.978629 C438.207964,309.438617 437.343993,310.80522 436.411813,312.080716 C439.001454,314.882252 440.481573,318.549304 440.615716,322.330239 C441.366007,323.127424 441.820729,324.152376 441.913947,325.313989 L442.914335,340.164409 L461.785289,336.019046 C464.081634,335.517958 466.400715,336.041823 468.151394,337.453979 C469.217716,338.319495 470.993405,340.255515 470.993405,343.6948 L470.993405,411 L457.351751,411 L457.351751,350.983349 L443.821505,353.944323 L434.272347,356.039781 L414.585167,360.365079 L404.74044,362.531145 L328.665485,379.226479 C326.209987,379.77312 323.549865,379.135372 321.571825,377.518225 C319.727928,376.037739 318.661605,373.851174 318.661605,371.527949 L318.661605,350.983349 L189.768441,379.226479 C187.360689,379.750344 184.811973,379.135372 182.881679,377.586555 C181.037782,376.103791 179.97146,373.896727 179.97146,371.527949 L179.97146,350.983349 L54.9229674,379.135372 L54.9229674,411 L41.2813137,411 L41.2813137,374.898903 C41.2813137,370.54855 44.82587,367.428139 48.1453391,366.676508 L184.152626,336.019046 C186.496717,335.492904 188.884007,336.041823 190.70062,337.499533 C192.544517,338.980019 193.613113,341.234914 193.613113,343.6948 L193.613113,364.398836 L323.095143,336.019046 C325.391488,335.517958 327.710569,336.041823 329.461248,337.453979 C330.527571,338.319495 332.303259,340.255515 332.303259,343.6948 L332.303259,364.421613 L405.670346,348.318473 L407.218674,325.313989 C407.309618,324.038493 407.900757,322.874602 408.762455,322.056918 C407.24141,321.21418 405.718092,320.644762 404.215237,319.915907 C398.849519,317.296584 394.827505,313.060115 392.39247,308.09479 C387.367794,307.682532 382.365855,306.386537 377.570813,304.040535 C374.499168,302.537271 371.725365,300.667303 369.226668,298.571845 L50.7827255,298.571845 C36.5976792,298.571845 25,286.957997 25,272.745325 L25,146.82652 C25,132.638903 36.5976792,121 50.7827255,121 L462.240011,121 C476.402321,121 488,132.638903 488,146.82652 L488,272.745325 Z M136.386376,198.582055 L145.342122,218.329469 L127.335139,218.329469 L136.113543,198.582055 L136.386376,198.582055 Z M290.309702,208.46715 C290.309702,219.787179 299.538281,229.034526 310.838117,229.034526 C322.140227,229.034526 331.45975,219.787179 331.45975,208.46715 C331.45975,197.147122 322.140227,187.717561 310.838117,187.717561 C299.538281,187.717561 290.309702,197.147122 290.309702,208.46715 Z M379.662534,205.597284 L365.043228,205.597284 L365.043228,187.717561 L379.662534,187.717561 C384.412103,187.717561 388.529608,191.68071 388.529608,196.441044 C388.529608,201.451921 384.412103,205.597284 379.662534,205.597284 Z"/>
</svg>
