<svg xmlns="http://www.w3.org/2000/svg" width="431" height="154" viewBox="0 0 431 154">
  <path fill="#00B8CD" fill-rule="evenodd" d="M382.667687,53.5794114 C382.464996,53.5794114 382.345282,53.7062693 382.269273,53.8071213 L378.272465,59.5544157 L374.275023,53.8071213 C374.205982,53.7062693 374.0793,53.5794114 373.876609,53.5794114 L371.330307,53.5794114 C370.930626,53.5794114 370.734903,53.9790136 370.930626,54.3082097 L376.624969,62.65609 L376.624969,70.6100766 C376.624969,70.8574494 376.821959,71.0794506 377.100025,71.0794506 L379.392965,71.0794506 C379.646961,71.0794506 379.868021,70.8574494 379.868021,70.6100766 L379.868021,62.6307184 L385.639007,54.3082097 C385.83473,53.9790136 385.639007,53.5794114 385.239959,53.5794114 L382.667687,53.5794114 Z M378.772858,99.6167562 L378.671512,98.0373761 L378.556865,96.3305038 L374.097669,96.3305038 L373.989989,97.9986844 L373.806301,100.707734 L378.772858,99.6167562 Z M365.838021,64.0064917 C368.011246,63.1318069 369.530793,61.2543108 369.530793,58.9581839 C369.530793,55.9833675 367.086469,53.5794114 364.089813,53.5794114 L356.951932,53.5794114 C356.672599,53.5794114 356.476875,53.8071213 356.476875,54.0551283 L356.476875,70.6100766 C356.476875,70.8574494 356.672599,71.0794506 356.951932,71.0794506 L359.244871,71.0794506 C359.497601,71.0794506 359.719927,70.8574494 359.719927,70.6100766 L359.719927,64.2354701 L362.494257,64.2354701 L365.813318,70.8574494 C365.863357,70.9583014 365.984338,71.0794506 366.212365,71.0794506 L368.834677,71.0794506 C369.258427,71.0794506 369.430081,70.6861913 369.258427,70.3563609 L365.838021,64.0064917 Z M344.644169,53.3314044 C339.65291,53.3314044 335.682071,57.3597751 335.682071,62.357974 C335.682071,67.356173 339.65291,71.3331663 344.644169,71.3331663 C349.636063,71.3331663 353.632871,67.356173 353.632871,62.357974 C353.632871,57.3597751 349.636063,53.3314044 344.644169,53.3314044 Z M334.313909,54.0551283 C334.313909,53.8071213 334.110585,53.5794114 333.838852,53.5794114 L322.924589,53.5794114 C322.652223,53.5794114 322.449533,53.8071213 322.449533,54.0551283 L322.449533,56.1102254 C322.449533,56.3575982 322.652223,56.5795994 322.924589,56.5795994 L326.744043,56.5795994 L326.744043,70.6100766 C326.744043,70.8574494 326.972703,71.0794506 327.219099,71.0794506 L329.543709,71.0794506 C329.791371,71.0794506 330.018765,70.8574494 330.018765,70.6100766 L330.018765,56.5795994 L333.838852,56.5795994 C334.110585,56.5795994 334.313909,56.3575982 334.313909,56.1102254 L334.313909,54.0551283 Z M318.662383,66.6330833 C318.509731,66.4808539 318.237999,66.4554823 318.034675,66.6330833 C316.990184,67.4830308 315.716399,68.0532568 314.215221,68.0532568 C311.023475,68.0532568 308.622856,65.4082708 308.622856,62.2818593 C308.622856,59.129442 310.998139,56.4590844 314.190518,56.4590844 C315.590351,56.4590844 316.990184,57.0039389 318.034675,57.9300011 C318.237999,58.1336079 318.484395,58.1336079 318.662383,57.9300011 L320.182563,56.3575982 C320.384621,56.1546256 320.384621,55.8565097 320.157227,55.6535371 C318.459058,54.1312431 316.641176,53.3314044 314.114509,53.3314044 C309.123249,53.3314044 305.100471,57.3597751 305.100471,62.357974 C305.100471,67.356173 309.123249,71.3331663 314.114509,71.3331663 C316.337773,71.3331663 318.484395,70.5593334 320.182563,68.9101815 C320.359284,68.7325805 320.409957,68.409093 320.2079,68.2314921 L318.662383,66.6330833 Z M296.619764,53.604783 C296.543755,53.4588965 296.442409,53.3314044 296.19538,53.3314044 L295.942017,53.3314044 C295.720324,53.3314044 295.593642,53.4588965 295.517633,53.604783 L287.758378,70.4318413 C287.605726,70.7559631 287.80905,71.0794506 288.182761,71.0794506 L290.354719,71.0794506 C290.7544,71.0794506 290.976093,70.8320778 291.077439,70.584705 L292.299917,67.882633 L299.767804,67.882633 L300.98965,70.584705 C301.161303,70.9329298 301.338658,71.0794506 301.712369,71.0794506 L303.88496,71.0794506 C304.258038,71.0794506 304.455028,70.7559631 304.308711,70.4318413 L296.619764,53.604783 Z M287.574689,54.0551283 C287.574689,53.8071213 287.378332,53.5794114 287.099633,53.5794114 L276.939759,53.5794114 C276.667393,53.5794114 276.464703,53.8071213 276.464703,54.0551283 L276.464703,70.6100766 C276.464703,70.8574494 276.667393,71.0794506 276.939759,71.0794506 L279.238399,71.0794506 C279.486061,71.0794506 279.713455,70.8574494 279.713455,70.6100766 L279.713455,64.2798703 L285.877154,64.2798703 C286.129884,64.2798703 286.352211,64.0578691 286.352211,63.8041534 L286.352211,61.7553993 C286.352211,61.5080265 286.129884,61.2796824 285.877154,61.2796824 L279.713455,61.2796824 L279.713455,56.5795994 L287.099633,56.5795994 C287.378332,56.5795994 287.574689,56.3575982 287.574689,56.1102254 L287.574689,54.0551283 Z M394,80.2582497 C394,84.2162143 390.768983,87.450455 386.823481,87.450455 L381.039827,87.450455 C380.970785,88.3327512 380.742125,89.2201218 380.324075,90.0700694 C380.128352,90.4766488 379.887657,90.8572223 379.627959,91.2124242 C380.349412,91.9926 380.761761,93.0138056 380.799132,94.0667257 C381.008156,94.2887269 381.134838,94.574157 381.160808,94.8976445 L381.439508,99.0332101 L386.696799,97.8788038 C387.336542,97.7392602 387.982618,97.8851467 388.470343,98.278406 C388.767412,98.5194359 389.262104,99.0585817 389.262104,100.016358 L389.262104,118.759604 L385.461652,118.759604 L385.461652,102.046084 L381.692238,102.87066 L379.031922,103.454206 L373.547237,104.658721 L370.804578,105.26193 L349.610726,109.91127 C348.926645,110.063499 348.185557,109.885898 347.634491,109.435553 C347.120797,109.023265 346.823728,108.414347 346.823728,107.767372 L346.823728,102.046084 L310.915162,109.91127 C310.244382,110.057157 309.534331,109.885898 308.996568,109.454582 C308.482873,109.041659 308.185805,108.427033 308.185805,107.767372 L308.185805,102.046084 L273.348332,109.885898 L273.348332,118.759604 L269.547881,118.759604 L269.547881,108.70612 C269.547881,107.494628 270.535365,106.625652 271.460141,106.416336 L309.350643,97.8788038 C310.003687,97.732283 310.668766,97.8851467 311.17486,98.2910918 C311.688554,98.7033797 311.986256,99.3313261 311.986256,100.016358 L311.986256,105.782047 L348.058875,97.8788038 C348.698618,97.7392602 349.344695,97.8851467 349.832419,98.278406 C350.129488,98.5194359 350.62418,99.0585817 350.62418,100.016358 L350.62418,105.78839 L371.063642,101.303965 L371.494993,94.8976445 C371.520329,94.5424426 371.685015,94.2183208 371.925077,93.990611 C371.501327,93.7559239 371.076943,93.5973516 370.65826,93.3943791 C369.163416,92.6649465 368.042916,91.4851686 367.364535,90.1024181 C365.964703,89.9876118 364.571204,89.6267012 363.235345,88.9733833 C362.37961,88.5547525 361.606851,88.034001 360.910735,87.450455 L272.194895,87.450455 C268.243059,87.450455 265.012042,84.2162143 265.012042,80.2582497 L265.012042,45.1922053 C265.012042,41.2412178 268.243059,38 272.194895,38 L386.823481,38 C390.768983,38 394,41.2412178 394,45.1922053 L394,80.2582497 Z M296.043362,59.6051589 L298.538358,65.1044463 L293.521762,65.1044463 L295.967353,59.6051589 L296.043362,59.6051589 Z M338.925123,62.357974 C338.925123,65.5103914 341.496129,68.0856056 344.644169,68.0856056 C347.792844,68.0856056 350.389185,65.5103914 350.389185,62.357974 C350.389185,59.2055567 347.792844,56.5795994 344.644169,56.5795994 C341.496129,56.5795994 338.925123,59.2055567 338.925123,62.357974 Z M363.818081,61.5587696 L359.745264,61.5587696 L359.745264,56.5795994 L363.818081,56.5795994 C365.141271,56.5795994 366.288374,57.6832626 366.288374,59.008927 C366.288374,60.4043633 365.141271,61.5587696 363.818081,61.5587696 Z M185.068277,43.2950463 C185.068277,44.8065575 184.564084,46.0675244 183.558231,47.0747756 C182.548578,48.0832955 181.293162,48.588824 179.781216,48.588824 C178.271803,48.588824 177.013854,48.0832955 176.008001,47.0747756 C175.000881,46.0675244 174.494788,44.8065575 174.494788,43.2950463 C174.494788,41.7809979 175.000881,40.520031 176.008001,39.5127798 C177.013854,38.5055285 178.271803,38.0006343 179.781216,38.0006343 C181.293162,38.0006343 182.548578,38.5055285 183.558231,39.5127798 C184.564084,40.520031 185.068277,41.7809979 185.068277,43.2950463 Z M118.847943,43.2950463 C118.847943,44.8065575 118.343116,46.0675244 117.337264,47.0747756 C116.331411,48.0832955 115.072194,48.588824 113.564049,48.588824 C112.050835,48.588824 110.794153,48.0832955 109.7845,47.0747756 C108.78118,46.0675244 108.276354,44.8065575 108.276354,43.2950463 C108.276354,41.7809979 108.78118,40.520031 109.7845,39.5127798 C110.794153,38.5055285 112.050835,38.0006343 113.564049,38.0006343 C115.072194,38.0006343 116.331411,38.5055285 117.337264,39.5127798 C118.343116,40.520031 118.847943,41.7809979 118.847943,43.2950463 Z M131.791647,106.918694 C130.832667,108.137797 130.148586,108.620491 128.294599,108.620491 L124.494147,108.620491 C122.10493,108.620491 122.946097,107.534588 123.621944,106.640875 C125.313144,104.41008 142.470916,83.2108659 142.470916,83.2108659 C142.470916,83.2108659 125.202931,61.8892343 123.515531,59.660342 C122.839684,58.7672628 121.998517,57.6807254 124.390268,57.6807254 L128.188186,57.6807254 C130.040273,57.6807254 130.726888,58.1615167 131.681434,59.3818891 C132.639148,60.6028958 146.667882,77.8638079 146.667882,77.8638079 C146.667882,77.8638079 160.689647,60.6028958 161.643561,59.3818891 C162.600008,58.1615167 163.289156,57.6807254 165.141876,57.6807254 L168.939161,57.6807254 C171.332812,57.6807254 170.489112,58.7672628 169.815798,59.660342 C168.122697,61.8892343 150.870548,83.2108659 150.870548,83.2108659 C150.870548,83.2108659 167.527293,104.41008 169.214694,106.640875 C169.891807,107.534588 170.729174,108.620491 168.33869,108.620491 L164.542039,108.620491 C162.689952,108.620491 162.001437,108.137797 161.04499,106.918694 C160.092343,105.697053 146.667882,88.5553868 146.667882,88.5553868 C146.667882,88.5553868 132.748094,105.697053 131.791647,106.918694 Z M238.270165,57.6807254 C236.416811,57.6807254 235.904384,57.9185839 235.072085,59.5937417 C234.240419,61.2574823 215.893106,97.6694883 215.893106,97.6694883 C215.893106,97.6694883 197.542626,61.2574823 196.713494,59.5937417 C195.877395,57.9185839 195.367501,57.6807254 193.514147,57.6807254 L191.159134,57.6807254 C189.422328,57.6807254 188.486783,58.4488497 189.464133,60.4170491 C190.442749,62.382077 213.041501,106.804521 213.041501,106.804521 C213.633738,107.928482 214.720033,108.620491 215.89374,108.620491 C217.064279,108.620491 218.149307,107.928482 218.743445,106.804521 C218.78525,106.72143 241.341563,62.382077 242.317646,60.4170491 C243.294995,58.4488497 242.361351,57.6807254 240.623911,57.6807254 L238.270165,57.6807254 Z M183.092676,106.581886 C183.092676,107.707749 182.178667,108.620491 181.055634,108.620491 L178.520733,108.620491 C177.395799,108.620491 176.484324,107.707749 176.484324,106.581886 L176.484324,59.7199652 C176.484324,58.592199 177.395799,57.6807254 178.520733,57.6807254 L181.055634,57.6807254 C182.178667,57.6807254 183.092676,58.592199 183.092676,59.7199652 L183.092676,106.581886 Z M116.874242,106.581886 C116.874242,107.707749 115.9615,108.620491 114.835933,108.620491 L112.302299,108.620491 C111.177365,108.620491 110.267157,107.707749 110.267157,106.581886 L110.267157,59.7199652 C110.267157,58.592199 111.177365,57.6807254 112.302299,57.6807254 L114.835933,57.6807254 C115.9615,57.6807254 116.874242,58.592199 116.874242,59.7199652 L116.874242,106.581886 Z M73.2038868,104.17349 C66.1299797,104.176027 60.1721385,102.805328 56.2405714,100.865672 L56.2405714,91.0202346 L56.2405714,66.487831 C60.5528171,63.4204085 67.5526154,61.5295923 73.2038868,61.5410095 C80.0725695,61.5460839 85.4641434,64.1434981 89.108143,68.084337 C92.7483422,72.0486445 94.7372451,77.3138792 94.7562474,83.43477 C94.7321779,89.3989914 92.6070921,94.3096584 88.827543,98.0779706 C85.0454603,101.815837 79.5481072,104.178564 73.2038868,104.17349 Z M73.9646105,57.6807254 C51.3683926,57.6807254 36,75.13129 36,75.13129 L40.3312479,82.011425 C40.3312479,82.011425 42.7274326,82.2099576 41.4593486,78.1574838 C42.5538787,76.0871639 44.6966999,73.3013657 48.8847975,70.0817137 L48.8847975,115.902766 C47.079583,116.414637 44.6928995,117.370511 46.3188593,119 L58.7615376,119 C60.4020658,117.355922 57.816492,116.364528 56.2405714,115.902766 L56.2405714,105.095112 C56.2405714,105.095112 64.7719517,108.446062 73.9646105,108.446062 C82.0456373,108.446062 89.3944437,106.040203 94.8607598,101.695322 C100.330243,97.3745439 103.853895,90.9238226 103.831726,83.5502106 C103.847561,76.3129708 100.752093,69.6662542 95.4200596,65.027063 C90.0930934,60.3663059 82.6334404,57.6807254 73.9646105,57.6807254 Z"/>
</svg>
