<svg width="2400" height="2400" viewBox="0 0 2400 2400" fill="none" xmlns="http://www.w3.org/2000/svg">
<path d="M1407.16 38.8369C510.515 38.8369 38.7054 821.181 38.7054 914.45C38.7054 931.656 53.0441 944.629 68.8849 944.629C78.3074 944.629 87.7299 940.806 94.5579 930.837C332.852 578.653 782.403 278.361 1349.8 278.361C1669.21 278.361 2035.87 443.869 2035.87 846.717C2035.87 1184.29 1664.16 1439.65 1403.88 1501.51C1429.14 1212.83 1302.69 880.72 943.542 880.72C725.322 880.72 549.571 1065.07 549.571 1286.71C549.571 1558.6 802.887 1736.4 1188.25 1719.87C1139.78 1884.02 973.721 2095.82 741.845 2147.98C695.279 2162.87 665.782 2205.88 665.782 2252.18C665.782 2316.77 719.586 2361.29 774.892 2361.29C992.976 2361.29 1305.83 2059.63 1371.24 1704.58C1812.05 1650.64 2361.29 1359.9 2361.29 846.717C2361.29 295.84 1925.4 38.8369 1407.16 38.8369ZM663.187 1286.71C663.187 1123.52 796.878 999.389 943.678 999.389C1204.64 999.389 1288.08 1292.85 1238.78 1538.25C983.827 1590.96 663.051 1520.63 663.051 1286.57L663.187 1286.71Z" fill="black" style="fill:black;fill:black;fill-opacity:1;"/>
</svg>
