<svg width="2400" height="632" viewBox="0 0 2400 632" fill="none" xmlns="http://www.w3.org/2000/svg">
<g clip-path="url(#clip0_2146_292)">
<path fill-rule="evenodd" clip-rule="evenodd" d="M-1.84399 238.35C-1.84399 213.139 125.691 1.66406 368.062 1.66406C508.147 1.66406 625.973 71.1344 625.973 220.042C625.973 358.761 477.509 437.349 358.353 451.929C340.672 547.903 256.104 629.444 197.154 629.444C182.204 629.444 167.661 617.411 167.661 599.951C167.661 587.437 175.634 575.81 188.221 571.786C250.9 557.685 295.786 500.433 308.89 456.064C204.721 460.53 136.248 412.469 136.248 338.975C136.248 279.066 183.755 229.233 242.742 229.233C339.823 229.233 374.005 319.005 367.176 397.04C437.532 380.318 538.009 311.291 538.009 220.042C538.009 111.148 438.898 66.4095 352.558 66.4095C199.184 66.4095 77.6667 147.581 13.2535 242.78C11.4078 245.475 8.86078 246.508 6.31378 246.508C2.03187 246.508 -1.84399 243.002 -1.84399 238.35ZM242.779 261.31C203.097 261.31 166.959 294.864 166.959 338.975L166.922 338.939C166.922 402.208 253.631 421.218 322.548 406.969C335.873 340.637 313.32 261.31 242.779 261.31Z" fill="black" style="fill:black;fill:black;fill-opacity:1;"/>
<path d="M2013.02 204.908C2013.9 201.364 2014.6 198.042 2014.6 194.351C2014.6 174.602 1998.58 158.582 1978.84 158.582C1961.86 158.582 1947.64 170.431 1943.99 186.341L1846.83 548.753C1831.66 605.415 1873.63 629.519 1905.56 629.519C1968.09 629.519 1994.71 555.102 1994.71 548.679C1994.71 544.766 1991.53 541.629 1987.66 541.629C1984.85 541.629 1982.53 543.216 1981.31 545.615C1977.73 552.629 1957.65 589.283 1936.46 589.283C1924.8 589.283 1916.38 579.686 1916.38 569.203C1916.38 564.915 1918.37 557.815 1920.74 549.361L1920.75 549.357L1920.75 549.351L1920.75 549.348C1921.44 546.89 1922.16 544.317 1922.88 541.666L2013.09 204.982L2013.02 204.908Z" fill="black" style="fill:black;fill:black;fill-opacity:1;"/>
<path fill-rule="evenodd" clip-rule="evenodd" d="M1701.29 299.885C1572.57 299.885 1490 414.61 1490 499.99C1490 578.763 1557.18 629.481 1638.39 629.481C1743.41 629.481 1789.25 557.242 1789.25 548.642C1789.25 544.729 1786.08 541.591 1782.2 541.591C1780.1 541.591 1778.66 542.33 1776.96 543.954C1759.39 560.675 1727.31 589.135 1666.26 589.135C1595.24 589.135 1543.12 530.628 1577.85 439.896C1601.11 457.909 1640.31 467.433 1680.36 467.433C1769.95 467.433 1816.9 422.768 1816.9 381.056C1816.9 335.284 1762.23 299.922 1701.25 299.922L1701.29 299.885ZM1659.84 440.634C1631.82 440.634 1604.06 432.698 1586.93 418.376C1600.48 381.093 1654.3 321.405 1702.58 321.405C1742.37 321.405 1753.52 349.459 1753.52 369.65C1753.52 418.634 1707.97 440.597 1659.84 440.597V440.634Z" fill="black" style="fill:black;fill:black;fill-opacity:1;"/>
<path d="M1195.13 362.784C1170.95 336.761 1151.43 321.405 1111.97 321.405L1111.93 321.368C1083.73 321.368 1043.83 340.747 1043.83 371.533C1043.83 397.857 1074.13 407.636 1119.61 422.311L1119.62 422.314L1119.64 422.321C1127.34 424.805 1135.48 427.43 1143.97 430.298C1219.31 455.732 1226.95 504.567 1226.95 524.279C1226.95 585.186 1169.92 629.481 1073.54 629.481C1016.51 629.481 965.717 608.588 943.57 585.813C939.288 581.42 935.707 574.592 935.707 567.32C935.707 553.108 947.224 541.591 961.436 541.591C968.892 541.591 975.241 543.917 980.298 549.786C1002.56 575.662 1036.22 602.572 1079.41 602.572C1132.01 602.572 1160.14 576.031 1160.14 547.497C1160.14 515.937 1144.97 505.527 1083.25 488.436C1023.78 471.973 981.885 451.376 981.885 402.023C981.885 350.013 1033.82 299.885 1123.85 299.885C1169.81 299.885 1210.78 316.016 1225.88 329.046C1232.67 334.915 1234.78 340.452 1234.78 347.133C1234.78 359.795 1224.51 370.056 1211.85 370.056C1205.25 370.056 1198.49 366.402 1195.13 362.784Z" fill="black" style="fill:black;fill:black;fill-opacity:1;"/>
<path d="M1473.42 321.847H1426.62L1439.02 275.595C1440.05 272.273 1440.61 268.729 1440.61 265.038C1440.61 245.289 1424.59 229.269 1404.84 229.269C1387.86 229.269 1373.65 241.118 1369.99 257.028L1352.61 321.884H1310.86C1303.73 321.884 1297.98 327.642 1297.98 334.766C1297.98 341.891 1303.73 347.649 1310.86 347.649H1345.74L1291.92 548.788C1276.75 605.45 1318.72 629.554 1350.65 629.554C1413.07 629.554 1439.8 555.174 1439.8 548.714C1439.8 544.802 1436.62 541.664 1432.75 541.664C1429.94 541.664 1427.73 543.214 1426.43 545.651C1426.35 545.795 1426.27 545.957 1426.17 546.135C1422.18 553.527 1402.85 589.319 1381.55 589.319C1369.88 589.319 1361.47 579.721 1361.47 569.238C1361.47 565.373 1363.1 559.387 1365.12 552.006L1365.12 552.003L1365.12 551.992C1366 548.802 1366.94 545.352 1367.85 541.701L1419.83 347.723H1473.53C1480.66 347.723 1486.42 341.965 1486.42 334.84C1486.42 327.716 1480.66 321.958 1473.53 321.958L1473.42 321.847Z" fill="black" style="fill:black;fill:black;fill-opacity:1;"/>
<path fill-rule="evenodd" clip-rule="evenodd" d="M2376.79 541.59C2380.67 541.59 2383.85 544.728 2383.85 548.64L2383.92 548.714C2383.92 555.506 2356.75 629.554 2294.77 629.554C2263.73 629.554 2223.16 606.742 2234.94 553.365C2214.16 593.047 2179.01 629.554 2129.37 629.554C2069.27 629.554 2034.24 590.684 2034.24 522.063C2034.24 413.945 2126.49 299.92 2242.17 299.92C2322.24 299.92 2365.72 355.881 2348.89 415.79C2342.39 438.855 2333.45 469.04 2325.27 496.657L2325.23 496.79L2325.21 496.837C2320.31 513.396 2315.68 529.022 2312.01 541.627L2311.62 542.975C2308.28 554.372 2305.52 563.836 2305.52 569.164C2305.52 579.647 2313.93 589.245 2325.6 589.245C2346.78 589.245 2367.05 552.553 2370.48 545.577C2371.7 543.067 2373.99 541.59 2376.79 541.59ZM2107.96 531.402C2107.96 565.62 2117.33 589.097 2149.71 589.097C2215.89 589.097 2265.02 454.069 2279.16 399.659C2292.19 349.458 2284.51 321.367 2249.26 321.367C2184.66 321.367 2107.96 417.821 2107.96 531.402Z" fill="black" style="fill:black;fill:black;fill-opacity:1;"/>
<path fill-rule="evenodd" clip-rule="evenodd" d="M915.963 548.64C915.963 544.728 912.788 541.59 908.912 541.59C906.107 541.59 903.818 543.067 902.6 545.577C899.167 552.553 878.902 589.245 857.714 589.245C846.049 589.245 837.633 579.647 837.633 569.164C837.633 563.837 840.401 554.376 843.733 542.983L844.13 541.627C847.791 529.028 852.419 513.409 857.322 496.859L857.326 496.847L857.333 496.823C865.529 469.161 874.495 438.902 881.006 415.79C897.838 355.881 854.355 299.92 774.29 299.92C658.605 299.92 566.359 413.945 566.359 522.063C566.359 590.684 601.39 629.554 661.484 629.554C711.132 629.554 746.273 593.047 767.055 553.365C755.28 606.742 795.848 629.554 826.891 629.554C888.868 629.554 916.036 555.506 916.036 548.714L915.963 548.64ZM681.823 589.097C649.45 589.097 640.074 565.62 640.074 531.402C640.074 417.821 716.78 321.367 781.378 321.367C816.63 321.367 824.307 349.458 811.277 399.659C797.14 454.069 748.008 589.097 681.823 589.097Z" fill="black" style="fill:black;fill:black;fill-opacity:1;"/>
</g>
<defs>
<clipPath id="clip0_2146_292">
<rect width="2400" height="631.579" fill="white" style="fill:white;fill:white;fill-opacity:1;"/>
</clipPath>
</defs>
</svg>
